<svg width="36" height="36" viewBox="0 0 36 36" fill="none" xmlns="http://www.w3.org/2000/svg">
<path d="M18.0399 0.5H17.9601C8.31717 0.5 0.5 8.31718 0.5 17.9601V18.0399C0.5 27.6828 8.31717 35.5 17.9601 35.5H18.0399C27.6828 35.5 35.5 27.6828 35.5 18.0399V17.9601C35.5 8.31718 27.6828 0.5 18.0399 0.5Z" fill="#FDBFD5"/>
<path d="M16.7863 18.9076C16.4422 18.4761 16.0481 18.1458 15.6069 17.9224C15.9968 17.6852 16.3326 17.3938 16.6101 17.0469C17.0777 16.4613 17.315 15.7273 17.315 14.8643C17.315 14.1442 17.1249 13.4823 16.7488 12.8982C16.3742 12.314 15.8164 11.845 15.0907 11.5037C14.3803 11.1693 13.5242 11 12.5488 11H7V25.3291H12.8041C13.7545 25.3291 14.6037 25.1557 15.3266 24.8143C16.0634 24.4674 16.6378 23.9818 17.0319 23.3727C17.4273 22.7608 17.6285 22.0656 17.6285 21.3066C17.6285 20.4172 17.3455 19.6111 16.7863 18.909V18.9076ZM13.8392 16.2962C13.4965 16.5737 12.9956 16.7153 12.3531 16.7153H9.95268V13.5406H12.3531C12.9928 13.5406 13.4909 13.6863 13.8336 13.9749C14.1625 14.251 14.322 14.6326 14.322 15.1376C14.322 15.6427 14.1639 16.034 13.8392 16.2962ZM9.95268 19.2572H12.5293C13.2037 19.2572 13.7226 19.421 14.1153 19.7581C14.4913 20.0814 14.6745 20.5102 14.6745 21.0707C14.6745 21.6313 14.5052 22.0268 14.1555 22.3223C13.7934 22.629 13.2731 22.7844 12.607 22.7844H9.95268V19.2572Z" fill="#1D1D1D"/>
<path d="M28.9647 16.5113C28.5179 15.7038 27.8852 15.0669 27.0832 14.6201C26.2826 14.1733 25.3571 13.9471 24.3359 13.9471C23.3147 13.9471 22.3198 14.1803 21.4998 14.6395C20.6783 15.1002 20.0318 15.762 19.5794 16.6098C19.1271 17.4562 18.8981 18.4497 18.8981 19.5625C18.8981 20.6753 19.134 21.6702 19.6002 22.5152C20.0664 23.3616 20.7186 24.0276 21.54 24.4938C22.36 24.96 23.3008 25.1959 24.3373 25.1959C25.6097 25.1959 26.6905 24.8726 27.5508 24.2357C28.4111 23.5989 29.0133 22.7691 29.3421 21.7715L29.3657 21.7007H26.8487L26.8335 21.7312C26.3492 22.7122 25.5098 23.209 24.3359 23.209C23.5186 23.209 22.8193 22.9495 22.2574 22.4403C21.7093 21.9421 21.3943 21.2761 21.3208 20.4589H29.5516L29.5586 20.4131C29.6113 20.0842 29.6377 19.7124 29.6377 19.3086C29.6377 18.2596 29.4115 17.3189 28.9647 16.5113ZM22.2962 16.6556C22.8318 16.1769 23.4853 15.9355 24.2374 15.9355C25.0685 15.9355 25.7748 16.1811 26.3367 16.6667C26.8834 17.1385 27.1734 17.7726 27.1984 18.5496H21.3444C21.4554 17.7601 21.7759 17.1232 22.2976 16.657L22.2962 16.6556Z" fill="#1D1D1D"/>
<path d="M27.0083 11.3288H21.5262V12.6275H27.0083V11.3288Z" fill="#1D1D1D"/>
</svg>
