<svg xmlns="http://www.w3.org/2000/svg" xmlns:xlink="http://www.w3.org/1999/xlink" width="53" zoomAndPan="magnify" viewBox="0 0 39.75 39.749999" height="53" preserveAspectRatio="xMidYMid meet" version="1.0"><defs><clipPath id="c1b7cf8a7f"><path d="M 0 0 L 39.3125 0 L 39.3125 39.3125 L 0 39.3125 Z M 0 0 " clip-rule="nonzero"/></clipPath><clipPath id="013ed77517"><path d="M 19.65625 0 C 8.800781 0 0 8.800781 0 19.65625 C 0 30.511719 8.800781 39.3125 19.65625 39.3125 C 30.511719 39.3125 39.3125 30.511719 39.3125 19.65625 C 39.3125 8.800781 30.511719 0 19.65625 0 Z M 19.65625 0 " clip-rule="nonzero"/></clipPath><clipPath id="e60ccbe619"><path d="M 11.03125 12.675781 L 28.917969 12.675781 L 28.917969 27.582031 L 11.03125 27.582031 Z M 11.03125 12.675781 " clip-rule="nonzero"/></clipPath></defs><g clip-path="url(#c1b7cf8a7f)"><g clip-path="url(#013ed77517)"><path fill="#e1949c" d="M 0 0 L 39.3125 0 L 39.3125 39.3125 L 0 39.3125 Z M 0 0 " fill-opacity="1" fill-rule="nonzero"/></g></g><g clip-path="url(#e60ccbe619)"><path fill="#fae6df" d="M 26.957031 12.675781 L 12.6875 12.675781 C 11.773438 12.675781 11.03125 13.421875 11.03125 14.332031 L 11.03125 25.957031 C 11.03125 26.871094 11.773438 27.613281 12.6875 27.613281 L 26.957031 27.613281 C 27.871094 27.613281 28.613281 26.871094 28.613281 25.957031 L 28.613281 14.332031 C 28.613281 13.421875 27.871094 12.675781 26.957031 12.675781 Z M 12.378906 14.332031 C 12.378906 14.164062 12.519531 14.023438 12.6875 14.023438 L 26.957031 14.023438 C 27.125 14.023438 27.265625 14.164062 27.265625 14.332031 L 27.265625 14.546875 L 19.980469 21.832031 C 19.894531 21.921875 19.75 21.921875 19.664062 21.832031 L 12.378906 14.546875 Z M 27.265625 25.957031 C 27.265625 26.125 27.125 26.265625 26.957031 26.265625 L 12.6875 26.265625 C 12.519531 26.265625 12.378906 26.125 12.378906 25.957031 L 12.378906 16.453125 L 18.707031 22.785156 C 19.003906 23.082031 19.398438 23.246094 19.820312 23.246094 C 20.242188 23.246094 20.636719 23.082031 20.933594 22.785156 L 27.261719 16.453125 L 27.261719 25.957031 Z M 27.265625 25.957031 " fill-opacity="1" fill-rule="nonzero"/></g></svg>