<svg width="36" height="36" viewBox="0 0 36 36" fill="none" xmlns="http://www.w3.org/2000/svg">
<g clip-path="url(#clip0_12_870)">
<path d="M18 0.5C8.3351 0.5 0.5 8.3351 0.5 18C0.5 26.2068 6.1504 33.0934 13.7727 34.9848V23.348H10.1642V18H13.7727V15.6956C13.7727 9.7393 16.4684 6.9785 22.3162 6.9785C23.425 6.9785 25.3381 7.1962 26.1207 7.4132V12.2607C25.7077 12.2173 24.9902 12.1956 24.0991 12.1956C21.2298 12.1956 20.121 13.2827 20.121 16.1086V18H25.8372L24.8551 23.348H20.121V35.3719C28.7863 34.3254 35.5007 26.9474 35.5007 18C35.5 8.3351 27.6649 0.5 18 0.5Z" fill="#FDBFD5"/>
</g>
<defs>
<clipPath id="clip0_12_870">
<rect width="35" height="35" fill="white" transform="translate(0.5 0.5)"/>
</clipPath>
</defs>
</svg>
