<svg width="65" height="65" viewBox="0 0 65 65" fill="none" xmlns="http://www.w3.org/2000/svg">
<path d="M41.1667 42.4666C45.9531 42.4666 49.8333 38.5864 49.8333 33.8C49.8333 29.0135 45.9531 25.1333 41.1667 25.1333C36.3802 25.1333 32.5 29.0135 32.5 33.8C32.5 38.5864 36.3802 42.4666 41.1667 42.4666Z" fill="#19BCFE"/>
<path fill-rule="evenodd" clip-rule="evenodd" d="M23.8333 59.8C26.1319 59.8 28.3363 58.8869 29.9616 57.2616C31.5869 55.6363 32.5 53.4319 32.5 51.1333V42.4667H23.8333C21.5348 42.4667 19.3304 43.3798 17.7051 45.0051C16.0798 46.6304 15.1667 48.8348 15.1667 51.1333C15.1667 53.4319 16.0798 55.6363 17.7051 57.2616C19.3304 58.8869 21.5348 59.8 23.8333 59.8V59.8Z" fill="#09CF83"/>
<path fill-rule="evenodd" clip-rule="evenodd" d="M23.8333 42.4666H32.5V25.1333H23.8333C21.5348 25.1333 19.3304 26.0464 17.7051 27.6717C16.0798 29.297 15.1667 31.5014 15.1667 33.8C15.1667 36.0985 16.0798 38.3029 17.7051 39.9282C19.3304 41.5535 21.5348 42.4666 23.8333 42.4666V42.4666Z" fill="#A259FF"/>
<path fill-rule="evenodd" clip-rule="evenodd" d="M23.8333 25.1334H32.5V7.80005H23.8333C21.5348 7.80005 19.3304 8.71314 17.7051 10.3385C16.0798 11.9638 15.1667 14.1682 15.1667 16.4667C15.1667 18.7653 16.0798 20.9697 17.7051 22.595C19.3304 24.2203 21.5348 25.1334 23.8333 25.1334V25.1334Z" fill="#F24E1E"/>
<path fill-rule="evenodd" clip-rule="evenodd" d="M41.1667 25.1334H32.5V7.80005H41.1667C43.4652 7.80005 45.6696 8.71314 47.2949 10.3385C48.9202 11.9638 49.8333 14.1682 49.8333 16.4667C49.8333 18.7653 48.9202 20.9697 47.2949 22.595C45.6696 24.2203 43.4652 25.1334 41.1667 25.1334Z" fill="#FF7262"/>
</svg>
