<svg width="33" height="32" viewBox="0 0 33 32" fill="none" xmlns="http://www.w3.org/2000/svg">
<g clip-path="url(#clip0_12_861)">
<path fill-rule="evenodd" clip-rule="evenodd" d="M16.5132 0C7.65833 0 0.5 7.2111 0.5 16.1322C0.5 23.2633 5.08659 29.2997 11.4494 31.4362C12.2449 31.5968 12.5363 31.089 12.5363 30.6619C12.5363 30.2879 12.5101 29.006 12.5101 27.6703C8.0556 28.632 7.12799 25.7472 7.12799 25.7472C6.41212 23.8776 5.35143 23.3971 5.35143 23.3971C3.89348 22.4088 5.45763 22.4088 5.45763 22.4088C7.07489 22.5157 7.9235 24.0648 7.9235 24.0648C9.35491 26.5218 11.6615 25.8276 12.5894 25.4001C12.7218 24.3585 13.1463 23.6373 13.597 23.2368C10.0442 22.8628 6.30625 21.474 6.30625 15.2774C6.30625 13.5146 6.94214 12.0724 7.94973 10.9507C7.79075 10.5502 7.23386 8.89391 8.10903 6.67715C8.10903 6.67715 9.46111 6.24973 12.5098 8.33309C13.815 7.97996 15.1611 7.80032 16.5132 7.79881C17.8653 7.79881 19.2436 7.98597 20.5164 8.33309C23.5654 6.24973 24.9175 6.67715 24.9175 6.67715C25.7926 8.89391 25.2354 10.5502 25.0764 10.9507C26.1106 12.0724 26.7202 13.5146 26.7202 15.2774C26.7202 21.474 22.9823 22.8359 19.4029 23.2368C19.9864 23.7442 20.4898 24.7056 20.4898 26.2281C20.4898 28.3914 20.4636 30.1277 20.4636 30.6616C20.4636 31.089 20.7553 31.5968 21.5505 31.4365C27.9133 29.2994 32.4999 23.2633 32.4999 16.1322C32.5262 7.2111 25.3416 0 16.5132 0Z" fill="#FDBFD5"/>
</g>
<defs>
<clipPath id="clip0_12_861">
<rect width="32" height="32" fill="white" transform="translate(0.5)"/>
</clipPath>
</defs>
</svg>
