<svg width="577" height="537" viewBox="0 0 577 537" fill="none" xmlns="http://www.w3.org/2000/svg">
<path d="M154.579 157.976C152.59 159.533 150.996 162.236 149.788 166.08C148.579 169.913 147.689 174.283 147.121 179.184C146.548 184.09 146.189 189.033 146.038 194.017C145.897 198.991 145.829 203.325 145.829 207.017C145.829 210.715 145.897 215.049 146.038 220.017C146.189 224.991 146.548 229.97 147.121 234.955C147.689 239.929 148.579 244.299 149.788 248.059C150.996 251.825 152.59 254.491 154.579 256.059C155.715 256.908 156.173 258.007 155.954 259.351C155.746 260.7 154.501 261.371 152.225 261.371H107.892C106.892 261.371 106.246 260.845 105.954 259.788C105.673 258.72 106.038 257.757 107.038 256.892C110.731 254.059 113.142 251.33 114.267 248.705C115.402 246.069 115.975 242.762 115.975 238.788V212.121H82.517C82.6524 217.246 82.9336 222.903 83.3503 229.08C83.7774 235.262 84.6316 240.84 85.9128 245.809C87.2045 250.783 88.9805 254.2 91.2461 256.059C92.3816 256.908 92.8816 258.007 92.7461 259.351C92.6055 260.7 91.3972 261.371 89.1211 261.371H44.767C43.7774 261.371 43.142 260.845 42.8503 259.788C42.5743 258.72 42.9232 257.757 43.9128 256.892C47.6055 254.059 49.9857 251.33 51.0586 248.705C52.1263 246.069 52.6628 242.762 52.6628 238.788V175.246C52.6628 171.413 52.1263 168.111 51.0586 165.33C49.9857 162.554 47.6055 159.819 43.9128 157.121C42.9232 156.278 42.5743 155.351 42.8503 154.351C43.142 153.351 43.7774 152.851 44.767 152.851H89.1211C91.3972 152.851 92.6055 153.491 92.7461 154.767C92.8816 156.049 92.3816 157.116 91.2461 157.976C89.3972 159.392 87.8711 161.991 86.6628 165.767C85.4545 169.533 84.5638 173.83 83.9961 178.663C83.4232 183.496 83.0378 188.33 82.8295 193.163C82.6211 197.986 82.517 202.319 82.517 206.163H115.975V175.246C115.975 171.413 115.402 168.111 114.267 165.33C113.142 162.554 110.731 159.819 107.038 157.121C106.038 156.278 105.673 155.351 105.954 154.351C106.246 153.351 106.892 152.851 107.892 152.851H152.225C154.501 152.851 155.746 153.491 155.954 154.767C156.173 156.049 155.715 157.116 154.579 157.976Z" fill="#FBF0E6"/>
<path d="M235.8 236.851C236.936 235.434 238.144 235.33 239.425 236.538C240.702 237.747 240.988 238.924 240.28 240.059C236.722 246.309 231.603 251.429 224.925 255.413C218.243 259.387 210.785 261.372 202.55 261.372C194.728 261.372 187.582 259.601 181.113 256.059C174.655 252.507 169.498 247.741 165.655 241.767C161.821 235.799 159.905 229.184 159.905 221.934C159.905 214.684 161.821 208.08 165.655 202.122C169.498 196.153 174.764 191.387 181.446 187.83C188.123 184.278 195.728 182.497 204.259 182.497C209.8 182.497 215.228 183.637 220.55 185.913C225.884 188.179 230.259 191.236 233.675 195.08C237.092 198.913 238.8 203.179 238.8 207.872C238.8 212.413 237.41 216.611 234.634 220.455C231.853 224.288 228.186 227.345 223.634 229.622C219.092 231.887 214.05 233.017 208.509 233.017C205.811 233.017 203.222 232.736 200.738 232.163C198.248 231.595 195.868 230.819 193.592 229.83C194.728 233.387 196.509 236.554 198.925 239.33C201.342 242.095 204.681 244.116 208.946 245.392C211.639 246.101 214.686 246.283 218.092 245.934C221.509 245.575 224.811 244.616 228.009 243.059C231.217 241.491 233.811 239.424 235.8 236.851ZM203.196 188.455C201.488 188.455 199.311 190.132 196.675 193.476C194.05 196.809 192.738 201.892 192.738 208.726C192.738 214.408 193.832 218.887 196.03 222.163C198.238 225.429 200.623 227.059 203.196 227.059C206.03 227.059 208.368 225.179 210.217 221.413C212.061 217.637 212.988 213.122 212.988 207.872C212.988 202.47 212.061 197.887 210.217 194.122C208.368 190.345 206.03 188.455 203.196 188.455Z" fill="#FBF0E6"/>
<path d="M291.661 256.059C292.796 256.908 293.296 258.007 293.161 259.351C293.02 260.7 291.744 261.372 289.328 261.372H247.098C246.109 261.372 245.473 260.845 245.182 259.788C244.906 258.72 245.255 257.757 246.244 256.892C249.937 254.059 252.317 251.33 253.39 248.705C254.458 246.069 254.994 242.762 254.994 238.788V190.809C254.994 186.825 254.458 183.486 253.39 180.788C252.317 178.08 249.937 175.382 246.244 172.684C245.255 171.84 244.906 170.913 245.182 169.913C245.473 168.913 246.109 168.413 247.098 168.413C252.223 168.413 256.703 167.705 260.536 166.288C264.369 164.872 267.744 163.174 270.661 161.184C273.578 159.184 276.166 157.408 278.432 155.851C280.708 154.283 282.848 153.283 284.848 152.851C287.124 152.283 288.119 152.679 287.828 154.038C287.546 155.387 287.265 156.767 286.973 158.184C285.124 168.424 283.953 178.944 283.453 189.747C282.953 200.554 282.984 210.72 283.557 220.247C284.124 229.762 285.119 237.72 286.536 244.122C287.963 250.512 289.671 254.491 291.661 256.059Z" fill="#FBF0E6"/>
<path d="M343.47 256.059C344.605 256.908 345.105 258.007 344.97 259.351C344.829 260.7 343.553 261.372 341.136 261.372H298.907C297.918 261.372 297.282 260.845 296.991 259.788C296.715 258.72 297.063 257.757 298.053 256.892C301.746 254.059 304.126 251.33 305.199 248.705C306.267 246.069 306.803 242.762 306.803 238.788V190.809C306.803 186.825 306.267 183.486 305.199 180.788C304.126 178.08 301.746 175.382 298.053 172.684C297.063 171.84 296.715 170.913 296.991 169.913C297.282 168.913 297.918 168.413 298.907 168.413C304.032 168.413 308.511 167.705 312.345 166.288C316.178 164.872 319.553 163.174 322.47 161.184C325.386 159.184 327.975 157.408 330.241 155.851C332.517 154.283 334.657 153.283 336.657 152.851C338.933 152.283 339.928 152.679 339.636 154.038C339.355 155.387 339.074 156.767 338.782 158.184C336.933 168.424 335.761 178.944 335.261 189.747C334.761 200.554 334.793 210.72 335.366 220.247C335.933 229.762 336.928 237.72 338.345 244.122C339.772 250.512 341.48 254.491 343.47 256.059Z" fill="#FBF0E6"/>
<path d="M391.237 182.497C399.055 182.497 406.159 184.278 412.549 187.83C418.95 191.387 424.07 196.153 427.904 202.122C431.737 208.08 433.654 214.684 433.654 221.934C433.654 229.184 431.737 235.799 427.904 241.767C424.07 247.741 418.95 252.507 412.549 256.059C406.159 259.601 399.055 261.372 391.237 261.372C383.414 261.372 376.268 259.601 369.799 256.059C363.341 252.507 358.185 247.741 354.341 241.767C350.508 235.799 348.591 229.184 348.591 221.934C348.591 214.684 350.508 208.08 354.341 202.122C358.185 196.153 363.341 191.387 369.799 187.83C376.268 184.278 383.414 182.497 391.237 182.497ZM391.237 255.413C393.513 255.413 395.534 253.887 397.299 250.83C399.075 247.778 400.534 243.726 401.674 238.684C402.81 233.632 403.383 228.049 403.383 221.934C403.383 215.684 402.81 210.038 401.674 204.997C400.534 199.944 399.075 195.924 397.299 192.934C395.534 189.95 393.513 188.455 391.237 188.455C388.956 188.455 386.893 189.95 385.049 192.934C383.2 195.924 381.706 199.944 380.57 204.997C379.43 210.038 378.862 215.684 378.862 221.934C378.862 228.049 379.43 233.632 380.57 238.684C381.706 243.726 383.2 247.778 385.049 250.83C386.893 253.887 388.956 255.413 391.237 255.413Z" fill="#FBF0E6"/>
<path d="M216.663 294.305C217.798 294.305 218.543 294.805 218.892 295.805C219.251 296.795 218.725 297.711 217.309 298.555C214.184 300.404 211.809 301.795 210.184 302.722C208.559 303.638 207.277 304.67 206.35 305.805C205.434 306.93 204.475 308.841 203.475 311.534L169.663 395.784C168.663 398.617 167.1 400.571 164.975 401.638C162.85 402.711 160.647 402.784 158.371 401.867C156.106 400.94 154.267 398.909 152.85 395.784C151.142 391.815 148.975 386.638 146.35 380.263C143.725 373.878 140.996 367.107 138.163 359.951C135.329 352.784 132.632 346.076 130.079 339.826L107.538 395.784C106.538 398.617 104.975 400.571 102.85 401.638C100.725 402.711 98.5222 402.784 96.2461 401.867C93.9805 400.94 92.142 398.909 90.7253 395.784C89.017 391.815 86.8138 386.571 84.1211 380.055C81.4232 373.529 78.6263 366.68 75.7253 359.513C72.819 352.347 70.0899 345.545 67.5378 339.097C64.9805 332.638 62.8816 327.321 61.2461 323.138C59.6211 318.961 58.8086 316.795 58.8086 316.638C57.2513 312.821 55.6524 309.529 54.017 306.763C52.392 303.987 49.168 301.253 44.3503 298.555C42.9336 297.711 42.4024 296.795 42.7461 295.805C43.1055 294.805 43.7774 294.305 44.767 294.305H92.8503C93.9857 294.305 94.6263 294.805 94.767 295.805C94.9024 296.795 94.6211 297.711 93.9128 298.555C91.2149 301.253 89.9024 303.987 89.9753 306.763C90.043 309.529 90.7878 312.821 92.2045 316.638C92.2045 316.795 92.9128 318.716 94.3295 322.409C95.7566 326.091 97.5691 330.659 99.767 336.117C101.96 341.576 104.189 347.216 106.454 353.034C108.731 358.841 110.793 364.013 112.642 368.555L126.892 332.18L120.725 316.638C119.309 312.821 117.746 309.529 116.038 306.763C114.34 303.987 111.079 301.253 106.246 298.555C104.829 297.711 104.335 296.795 104.767 295.805C105.194 294.805 105.902 294.305 106.892 294.305H154.767C155.475 294.305 156.111 294.591 156.684 295.159C156.96 295.732 156.96 296.367 156.684 297.076C156.684 297.492 156.397 297.987 155.829 298.555C153.272 301.253 151.996 303.987 151.996 306.763C151.996 309.529 152.772 312.821 154.329 316.638C154.329 316.795 155.038 318.716 156.454 322.409C157.882 326.091 159.694 330.659 161.892 336.117C164.085 341.576 166.314 347.216 168.579 353.034C170.856 358.841 172.84 364.013 174.538 368.555L197.1 311.534C198.085 308.841 198.579 306.93 198.579 305.805C198.579 304.67 198.152 303.638 197.309 302.722C196.46 301.795 195.184 300.404 193.475 298.555C192.626 297.711 192.309 296.795 192.517 295.805C192.736 294.805 193.34 294.305 194.329 294.305H216.663Z" fill="#FDBFD5"/>
<path d="M244.109 323.888C251.911 323.888 259.005 325.659 265.38 329.201C271.766 332.742 276.88 337.492 280.714 343.451C284.547 349.409 286.464 356.008 286.464 363.242C286.464 370.482 284.547 377.076 280.714 383.034C276.88 388.982 271.766 393.732 265.38 397.284C259.005 400.826 251.911 402.597 244.109 402.597C236.318 402.597 229.193 400.826 222.734 397.284C216.276 393.732 211.13 388.982 207.297 383.034C203.474 377.076 201.568 370.482 201.568 363.242C201.568 356.008 203.474 349.409 207.297 343.451C211.13 337.492 216.276 332.742 222.734 329.201C229.193 325.659 236.318 323.888 244.109 323.888ZM244.109 396.638C246.385 396.638 248.406 395.117 250.172 392.076C251.948 389.024 253.401 384.982 254.526 379.951C255.661 374.909 256.234 369.341 256.234 363.242C256.234 356.992 255.661 351.357 254.526 346.326C253.401 341.284 251.948 337.279 250.172 334.305C248.406 331.321 246.385 329.826 244.109 329.826C241.844 329.826 239.786 331.321 237.943 334.305C236.094 337.279 234.599 341.284 233.464 346.326C232.339 351.357 231.776 356.992 231.776 363.242C231.776 369.341 232.339 374.909 233.464 379.951C234.599 384.982 236.094 389.024 237.943 392.076C239.786 395.117 241.844 396.638 244.109 396.638Z" fill="#FDBFD5"/>
<path d="M356.654 323.888C360.779 323.888 364.998 324.987 369.321 327.18C373.654 329.378 376.243 332.742 377.091 337.284C377.935 341.399 377.404 344.878 375.487 347.722C373.571 350.555 371.013 352.753 367.821 354.305C364.638 355.862 361.414 356.716 358.154 356.867C354.888 357.008 352.227 356.3 350.175 354.742C348.118 353.175 347.305 350.758 347.737 347.492C348.154 345.076 348.571 342.987 348.987 341.222C349.414 339.446 348.638 338.555 346.654 338.555C344.112 338.555 341.243 340.19 338.05 343.451C334.852 346.716 332.263 350.263 330.279 354.097C329.571 365.862 329.888 375.43 331.237 382.805C332.581 390.18 334.748 395.008 337.737 397.284C338.862 398.133 339.352 399.232 339.216 400.576C339.076 401.925 337.868 402.597 335.591 402.597H294.112C293.123 402.597 292.487 402.071 292.196 401.013C291.92 399.946 292.269 398.987 293.258 398.138C296.951 395.295 299.326 392.555 300.383 389.93C301.451 387.305 301.987 384.013 301.987 380.055V362.18C301.987 358.211 301.451 354.878 300.383 352.18C299.326 349.487 296.951 346.716 293.258 343.867C292.269 343.024 291.92 342.107 292.196 341.117C292.487 340.117 293.123 339.617 294.112 339.617C299.222 339.617 303.654 338.909 307.404 337.492C311.164 336.076 314.466 334.409 317.3 332.492C320.133 330.576 322.644 328.805 324.841 327.18C327.05 325.545 329.144 324.513 331.133 324.097C333.394 323.67 334.347 324.091 333.987 325.367C333.638 326.649 333.326 327.992 333.05 329.409L331.341 343.242C333.05 340.826 335.175 338.097 337.716 335.055C340.269 332.003 343.18 329.378 346.446 327.18C349.706 324.987 353.112 323.888 356.654 323.888Z" fill="#FDBFD5"/>
<path d="M427.714 397.284C428.849 398.133 429.349 399.232 429.214 400.576C429.073 401.925 427.797 402.597 425.38 402.597H383.255C382.266 402.597 381.63 402.071 381.339 401.013C381.063 399.946 381.412 398.987 382.401 398.138C386.094 395.295 388.469 392.555 389.526 389.93C390.594 387.305 391.13 384.013 391.13 380.055V332.18C391.13 328.211 390.594 324.878 389.526 322.18C388.469 319.487 386.094 316.795 382.401 314.097C381.412 313.253 381.063 312.336 381.339 311.347C381.63 310.347 382.266 309.847 383.255 309.847C388.365 309.847 392.828 309.138 396.651 307.722C400.485 306.295 403.849 304.586 406.755 302.597C409.672 300.612 412.261 298.841 414.526 297.284C416.802 295.732 418.932 294.737 420.922 294.305C423.182 293.737 424.172 294.128 423.88 295.472C423.599 296.821 423.323 298.201 423.047 299.617C421.198 309.841 420.026 320.341 419.526 331.117C419.037 341.899 419.073 352.034 419.63 361.534C420.198 371.034 421.193 378.982 422.61 385.367C424.026 391.742 425.724 395.716 427.714 397.284Z" fill="#FDBFD5"/>
<path d="M527.079 398.138C528.215 398.987 528.673 399.946 528.454 401.013C528.246 402.071 527.569 402.597 526.433 402.597H475.371C467.579 402.597 460.454 400.826 453.996 397.284C447.537 393.732 442.392 388.982 438.558 383.034C434.735 377.076 432.829 370.482 432.829 363.242C432.829 356.008 434.735 349.409 438.558 343.451C442.392 337.492 447.537 332.742 453.996 329.201C460.454 325.659 467.579 323.888 475.371 323.888C479.912 323.888 484.168 324.524 488.142 325.784C486.86 320.258 484.735 316.362 481.767 314.097C480.626 313.253 480.194 312.336 480.475 311.347C480.767 310.347 481.402 309.847 482.392 309.847C487.501 309.847 491.965 309.138 495.787 307.722C499.621 306.295 502.985 304.586 505.892 302.597C508.808 300.612 511.433 298.841 513.767 297.284C516.11 295.732 518.277 294.737 520.267 294.305C522.543 293.737 523.537 294.128 523.246 295.472C522.965 296.821 522.683 298.201 522.392 299.617C521.402 304.867 520.626 309.378 520.058 313.138C519.485 316.888 519.058 320.545 518.767 324.097C518.485 327.638 518.35 331.753 518.35 336.43V380.055C518.35 384.013 518.918 387.305 520.058 389.93C521.194 392.555 523.537 395.295 527.079 398.138ZM463.037 363.242C463.037 369.341 463.6 374.909 464.725 379.951C465.86 384.982 467.355 389.024 469.204 392.076C471.048 395.117 473.105 396.638 475.371 396.638C477.647 396.638 479.668 395.117 481.433 392.076C483.209 389.024 484.662 384.982 485.787 379.951C486.923 374.909 487.496 369.341 487.496 363.242C487.496 356.992 486.923 351.357 485.787 346.326C484.662 341.284 483.209 337.279 481.433 334.305C479.668 331.321 477.647 329.826 475.371 329.826C473.105 329.826 471.048 331.321 469.204 334.305C467.355 337.279 465.86 341.284 464.725 346.326C463.6 351.357 463.037 356.992 463.037 363.242Z" fill="#FDBFD5"/>
<mask id="mask0_8_531" style="mask-type:luminance" maskUnits="userSpaceOnUse" x="47" y="432" width="425" height="51">
<path d="M47.7812 432.812H471.333V482.641H47.7812V432.812Z" fill="white"/>
</mask>
<g mask="url(#mask0_8_531)">
<mask id="mask1_8_531" style="mask-type:luminance" maskUnits="userSpaceOnUse" x="47" y="432" width="425" height="51">
<path d="M446.276 432.812C460.036 432.812 471.188 443.969 471.188 457.729C471.188 471.49 460.036 482.641 446.276 482.641H72.6979C58.9375 482.641 47.7812 471.49 47.7812 457.729C47.7812 443.969 58.9375 432.812 72.6979 432.812H446.276Z" fill="white"/>
</mask>
<g mask="url(#mask1_8_531)">
<path d="M47.7812 432.812H471.141V482.641H47.7812V432.812Z" fill="#1D1D1D"/>
</g>
</g>
<mask id="mask2_8_531" style="mask-type:luminance" maskUnits="userSpaceOnUse" x="47" y="432" width="425" height="51">
<path d="M47.8385 432.812H471.266V482.625H47.8385V432.812Z" fill="white"/>
</mask>
<g mask="url(#mask2_8_531)">
<mask id="mask3_8_531" style="mask-type:luminance" maskUnits="userSpaceOnUse" x="47" y="432" width="425" height="51">
<path d="M446.214 432.812C459.969 432.812 471.12 443.964 471.12 457.719C471.12 471.474 459.969 482.625 446.214 482.625H72.75C58.9896 482.625 47.8385 471.474 47.8385 457.719C47.8385 443.964 58.9896 432.812 72.75 432.812H446.214Z" fill="white"/>
</mask>
<g mask="url(#mask3_8_531)">
<path d="M446.214 432.812C459.969 432.812 471.12 443.964 471.12 457.719C471.12 471.474 459.969 482.625 446.214 482.625H72.75C58.9896 482.625 47.8385 471.474 47.8385 457.719C47.8385 443.964 58.9896 432.812 72.75 432.812H446.214Z" stroke="#FBF0E6" stroke-width="1.99885"/>
</g>
</g>
<path d="M126.449 462.611V450.278H131.011C131.996 450.278 132.808 450.445 133.449 450.778C134.1 451.111 134.584 451.57 134.907 452.153C135.225 452.726 135.386 453.361 135.386 454.07C135.386 454.752 135.23 455.377 134.928 455.945C134.621 456.518 134.142 456.976 133.491 457.32C132.85 457.669 132.022 457.841 131.011 457.841H128.72V462.611H126.449ZM128.72 456.007H130.886C131.662 456.007 132.225 455.835 132.574 455.486C132.918 455.143 133.095 454.669 133.095 454.07C133.095 453.46 132.918 452.981 132.574 452.632C132.225 452.289 131.662 452.111 130.886 452.111H128.72V456.007Z" fill="white"/>
<path d="M144.684 462.82C143.445 462.82 142.361 462.549 141.434 462.007C140.518 461.466 139.794 460.726 139.268 459.778C138.752 458.82 138.497 457.71 138.497 456.445C138.497 455.195 138.752 454.091 139.268 453.132C139.794 452.174 140.518 451.424 141.434 450.882C142.361 450.341 143.445 450.07 144.684 450.07C145.903 450.07 146.976 450.341 147.893 450.882C148.82 451.424 149.544 452.174 150.059 453.132C150.57 454.091 150.83 455.195 150.83 456.445C150.83 457.71 150.57 458.82 150.059 459.778C149.544 460.726 148.82 461.466 147.893 462.007C146.976 462.549 145.903 462.82 144.684 462.82ZM144.684 460.799C145.851 460.799 146.778 460.414 147.476 459.632C148.184 458.856 148.538 457.794 148.538 456.445C148.538 455.101 148.184 454.044 147.476 453.278C146.778 452.502 145.851 452.111 144.684 452.111C143.502 452.111 142.559 452.502 141.851 453.278C141.153 454.044 140.809 455.101 140.809 456.445C140.809 457.794 141.153 458.856 141.851 459.632C142.559 460.414 143.502 460.799 144.684 460.799Z" fill="white"/>
<path d="M154.574 462.611V450.278H159.116C160.1 450.278 160.913 450.455 161.554 450.799C162.189 451.132 162.663 451.585 162.97 452.153C163.288 452.726 163.449 453.351 163.449 454.028C163.449 454.794 163.251 455.486 162.866 456.111C162.475 456.726 161.866 457.169 161.033 457.445L163.574 462.611H160.991L158.699 457.757H156.845V462.611H154.574ZM156.845 456.091H158.97C159.72 456.091 160.267 455.914 160.616 455.549C160.975 455.19 161.158 454.71 161.158 454.111C161.158 453.528 160.981 453.065 160.637 452.716C160.288 452.356 159.725 452.174 158.949 452.174H156.845V456.091Z" fill="white"/>
<path d="M170.174 462.611V452.111H166.591V450.278H176.049V452.111H172.424V462.611H170.174Z" fill="white"/>
<path d="M179.461 462.611V450.278H187.42V452.111H181.732V455.549H186.336V457.32H181.732V462.611H179.461Z" fill="white"/>
<path d="M196.711 462.82C195.472 462.82 194.388 462.549 193.461 462.007C192.545 461.466 191.821 460.726 191.295 459.778C190.779 458.82 190.524 457.71 190.524 456.445C190.524 455.195 190.779 454.091 191.295 453.132C191.821 452.174 192.545 451.424 193.461 450.882C194.388 450.341 195.472 450.07 196.711 450.07C197.93 450.07 199.003 450.341 199.92 450.882C200.847 451.424 201.571 452.174 202.086 453.132C202.597 454.091 202.857 455.195 202.857 456.445C202.857 457.71 202.597 458.82 202.086 459.778C201.571 460.726 200.847 461.466 199.92 462.007C199.003 462.549 197.93 462.82 196.711 462.82ZM196.711 460.799C197.878 460.799 198.805 460.414 199.503 459.632C200.211 458.856 200.565 457.794 200.565 456.445C200.565 455.101 200.211 454.044 199.503 453.278C198.805 452.502 197.878 452.111 196.711 452.111C195.529 452.111 194.586 452.502 193.878 453.278C193.18 454.044 192.836 455.101 192.836 456.445C192.836 457.794 193.18 458.856 193.878 459.632C194.586 460.414 195.529 460.799 196.711 460.799Z" fill="white"/>
<path d="M206.601 462.611V450.278H208.872V460.841H214.33V462.611H206.601Z" fill="white"/>
<path d="M218.059 462.611V450.278H220.33V462.611H218.059Z" fill="white"/>
<path d="M230.258 462.82C229.018 462.82 227.935 462.549 227.008 462.007C226.091 461.466 225.367 460.726 224.841 459.778C224.326 458.82 224.071 457.71 224.071 456.445C224.071 455.195 224.326 454.091 224.841 453.132C225.367 452.174 226.091 451.424 227.008 450.882C227.935 450.341 229.018 450.07 230.258 450.07C231.477 450.07 232.55 450.341 233.466 450.882C234.393 451.424 235.117 452.174 235.633 453.132C236.143 454.091 236.404 455.195 236.404 456.445C236.404 457.71 236.143 458.82 235.633 459.778C235.117 460.726 234.393 461.466 233.466 462.007C232.55 462.549 231.477 462.82 230.258 462.82ZM230.258 460.799C231.425 460.799 232.352 460.414 233.05 459.632C233.758 458.856 234.112 457.794 234.112 456.445C234.112 455.101 233.758 454.044 233.05 453.278C232.352 452.502 231.425 452.111 230.258 452.111C229.076 452.111 228.133 452.502 227.425 453.278C226.727 454.044 226.383 455.101 226.383 456.445C226.383 457.794 226.727 458.856 227.425 459.632C228.133 460.414 229.076 460.799 230.258 460.799Z" fill="white"/>
<path d="M246.098 464.382V449.945H248.368V464.382H246.098Z" fill="white"/>
<path d="M258.162 462.611V460.966C258.912 460.356 259.642 459.747 260.35 459.132C261.058 458.523 261.689 457.919 262.246 457.32C262.814 456.726 263.267 456.143 263.6 455.57C263.933 455.002 264.1 454.445 264.1 453.903C264.1 453.393 263.959 452.945 263.683 452.57C263.402 452.184 262.954 451.986 262.329 451.986C261.673 451.986 261.183 452.195 260.85 452.611C260.527 453.028 260.371 453.544 260.371 454.153H258.183C258.209 453.236 258.412 452.481 258.787 451.882C259.162 451.273 259.652 450.82 260.267 450.528C260.892 450.226 261.59 450.07 262.371 450.07C263.621 450.07 264.59 450.419 265.287 451.111C265.996 451.794 266.35 452.684 266.35 453.778C266.35 454.46 266.189 455.127 265.871 455.778C265.564 456.419 265.162 457.039 264.662 457.632C264.162 458.231 263.61 458.794 263.017 459.32C262.433 459.835 261.86 460.315 261.308 460.757H266.642V462.611H258.162Z" fill="white"/>
<path d="M275.327 462.82C274.186 462.82 273.207 462.559 272.389 462.028C271.582 461.486 270.957 460.747 270.514 459.799C270.082 458.841 269.868 457.726 269.868 456.445C269.868 455.195 270.082 454.091 270.514 453.132C270.957 452.164 271.582 451.414 272.389 450.882C273.207 450.341 274.186 450.07 275.327 450.07C276.462 450.07 277.436 450.341 278.243 450.882C279.061 451.414 279.686 452.164 280.118 453.132C280.561 454.091 280.785 455.195 280.785 456.445C280.785 457.726 280.561 458.841 280.118 459.799C279.686 460.747 279.061 461.486 278.243 462.028C277.436 462.559 276.462 462.82 275.327 462.82ZM275.327 460.799C276.254 460.799 277.014 460.414 277.598 459.632C278.181 458.856 278.473 457.794 278.473 456.445C278.473 455.101 278.181 454.044 277.598 453.278C277.014 452.502 276.254 452.111 275.327 452.111C274.379 452.111 273.618 452.502 273.035 453.278C272.462 454.044 272.181 455.101 272.181 456.445C272.181 457.794 272.462 458.856 273.035 459.632C273.618 460.414 274.379 460.799 275.327 460.799Z" fill="white"/>
<path d="M284.229 462.611V460.966C284.979 460.356 285.708 459.747 286.416 459.132C287.125 458.523 287.755 457.919 288.312 457.32C288.88 456.726 289.333 456.143 289.666 455.57C290 455.002 290.166 454.445 290.166 453.903C290.166 453.393 290.026 452.945 289.75 452.57C289.468 452.184 289.02 451.986 288.395 451.986C287.739 451.986 287.25 452.195 286.916 452.611C286.593 453.028 286.437 453.544 286.437 454.153H284.25C284.276 453.236 284.479 452.481 284.854 451.882C285.229 451.273 285.718 450.82 286.333 450.528C286.958 450.226 287.656 450.07 288.437 450.07C289.687 450.07 290.656 450.419 291.354 451.111C292.062 451.794 292.416 452.684 292.416 453.778C292.416 454.46 292.255 455.127 291.937 455.778C291.63 456.419 291.229 457.039 290.729 457.632C290.229 458.231 289.677 458.794 289.083 459.32C288.5 459.835 287.927 460.315 287.375 460.757H292.708V462.611H284.229Z" fill="white"/>
<path d="M301.976 462.611V460.32H295.893V458.528L301.664 450.278H304.226V458.361H305.851V460.32H304.226V462.611H301.976ZM298.31 458.361H302.122V452.778L298.31 458.361Z" fill="white"/>
<path d="M315.322 462.611V450.278H323.384V452.111H317.593V455.486H322.843V457.236H317.593V460.799H323.384V462.611H315.322Z" fill="white"/>
<path d="M327.255 462.611V450.278H331.463C332.906 450.278 334.094 450.539 335.026 451.049C335.969 451.565 336.661 452.289 337.109 453.216C337.568 454.132 337.797 455.21 337.797 456.445C337.797 457.695 337.568 458.778 337.109 459.695C336.661 460.611 335.969 461.33 335.026 461.841C334.094 462.356 332.906 462.611 331.463 462.611H327.255ZM329.526 460.674H331.359C332.401 460.674 333.219 460.507 333.818 460.174C334.411 459.841 334.838 459.361 335.088 458.736C335.349 458.101 335.484 457.335 335.484 456.445C335.484 455.57 335.349 454.82 335.088 454.195C334.838 453.559 334.411 453.07 333.818 452.736C333.219 452.393 332.401 452.216 331.359 452.216H329.526V460.674Z" fill="white"/>
<path d="M341.529 462.611V450.278H343.8V462.611H341.529Z" fill="white"/>
<path d="M350.811 462.611V452.111H347.228V450.278H356.686V452.111H353.061V462.611H350.811Z" fill="white"/>
<path d="M360.098 462.611V450.278H362.369V462.611H360.098Z" fill="white"/>
<path d="M372.297 462.82C371.057 462.82 369.974 462.549 369.047 462.007C368.13 461.466 367.406 460.726 366.88 459.778C366.364 458.82 366.109 457.71 366.109 456.445C366.109 455.195 366.364 454.091 366.88 453.132C367.406 452.174 368.13 451.424 369.047 450.882C369.974 450.341 371.057 450.07 372.297 450.07C373.516 450.07 374.588 450.341 375.505 450.882C376.432 451.424 377.156 452.174 377.672 453.132C378.182 454.091 378.443 455.195 378.443 456.445C378.443 457.71 378.182 458.82 377.672 459.778C377.156 460.726 376.432 461.466 375.505 462.007C374.588 462.549 373.516 462.82 372.297 462.82ZM372.297 460.799C373.463 460.799 374.391 460.414 375.088 459.632C375.797 458.856 376.151 457.794 376.151 456.445C376.151 455.101 375.797 454.044 375.088 453.278C374.391 452.502 373.463 452.111 372.297 452.111C371.114 452.111 370.172 452.502 369.463 453.278C368.766 454.044 368.422 455.101 368.422 456.445C368.422 457.794 368.766 458.856 369.463 459.632C370.172 460.414 371.114 460.799 372.297 460.799Z" fill="white"/>
<path d="M382.187 462.611V450.278H384.458L390.249 458.966V450.278H392.499V462.611H390.249L384.458 453.945V462.611H382.187Z" fill="white"/>
</svg>
