<svg width="65" height="65" viewBox="0 0 65 65" fill="none" xmlns="http://www.w3.org/2000/svg">
<g clip-path="url(#clip0_26_114)">
<path d="M11.8056 0H54.8611C61.3889 0 66.6667 5.27778 66.6667 11.8056V53.1944C66.6667 59.7222 61.3889 65 54.8611 65H11.8056C5.27778 65 0 59.7222 0 53.1944V11.8056C0 5.27778 5.27778 0 11.8056 0Z" fill="#330000"/>
<path d="M32.2222 38.8889H21.8889L19.7778 45.4167C19.7222 45.6667 19.5 45.8334 19.25 45.8056H14.0278C13.7222 45.8056 13.6389 45.6389 13.7222 45.3056L22.6667 19.5556C22.75 19.2778 22.8333 18.9723 22.9444 18.6389C23.0556 18.0556 23.1111 17.4445 23.1111 16.8334C23.0833 16.6945 23.1944 16.5556 23.3333 16.5278H23.4167H30.5278C30.75 16.5278 30.8611 16.6112 30.8889 16.7501L41.0278 45.3612C41.1111 45.6667 41.0278 45.8056 40.75 45.8056H34.9444C34.75 45.8334 34.5556 45.6945 34.5 45.5001L32.2222 38.8889V38.8889ZM23.5 33.2501H30.5556C30.3889 32.6667 30.1667 31.9723 29.9167 31.2501C29.6667 30.5001 29.4167 29.6945 29.1667 28.8612C28.8889 28.0001 28.6389 27.1667 28.3611 26.3056C28.0833 25.4445 27.8333 24.6389 27.6111 23.8334C27.3889 23.0556 27.1944 22.3334 27 21.6667H26.9444C26.6944 22.8612 26.3889 24.0556 26 25.2501C25.5833 26.5834 25.1667 27.9723 24.7222 29.3612C24.3333 30.7778 23.9167 32.0834 23.5 33.2501V33.2501Z" fill="#FF9A00"/>
<path d="M47.2221 21.389C46.3054 21.4167 45.4165 21.0556 44.7498 20.4167C44.111 19.7223 43.7776 18.8056 43.8054 17.8612C43.7776 16.9167 44.1387 16.0279 44.8054 15.389C45.4721 14.7501 46.361 14.4167 47.2776 14.4167C48.361 14.4167 49.1943 14.7501 49.8054 15.389C50.4165 16.0556 50.7498 16.9445 50.7221 17.8612C50.7498 18.8056 50.4165 19.7223 49.7498 20.4167C49.111 21.0834 48.1665 21.4445 47.2221 21.389ZM44.111 45.5001V24.1112C44.111 23.8334 44.2221 23.7223 44.4721 23.7223H49.9721C50.2221 23.7223 50.3332 23.8612 50.3332 24.1112V45.5001C50.3332 45.8056 50.2221 45.9445 49.9721 45.9445H44.5276C44.2498 45.9445 44.111 45.7779 44.111 45.5001V45.5001Z" fill="#FF9A00"/>
</g>
<defs>
<clipPath id="clip0_26_114">
<rect width="65" height="65" rx="32.5" fill="white"/>
</clipPath>
</defs>
</svg>
