<svg width="65" height="65" viewBox="0 0 65 65" fill="none" xmlns="http://www.w3.org/2000/svg">
<g clip-path="url(#clip0_26_124)">
<path d="M11.8174 -0.866699H54.916C61.4503 -0.866699 66.7333 4.55182 66.7333 11.2537V53.7463C66.7333 60.4481 61.4503 65.8666 54.916 65.8666H11.8174C5.28306 65.8666 0 60.4481 0 53.7463V11.2537C0 4.55182 5.28306 -0.866699 11.8174 -0.866699Z" fill="#001E36"/>
<path d="M15.0147 45.9321V16.5865C15.0147 16.3869 15.0982 16.2728 15.2928 16.2728C15.7655 16.2728 16.2104 16.2728 16.8499 16.2443C17.5172 16.2158 18.2124 16.2158 18.9631 16.1872C19.7139 16.1587 20.5202 16.1587 21.3822 16.1302C22.2442 16.1017 23.0784 16.1017 23.9125 16.1017C26.1926 16.1017 28.0834 16.3869 29.6405 16.9858C31.0307 17.4706 32.3098 18.2691 33.3664 19.3243C34.2562 20.2369 34.9513 21.3491 35.3962 22.5754C35.8133 23.7732 36.0357 24.9995 36.0357 26.2828C36.0357 28.7354 35.4796 30.7602 34.3674 32.3572C33.2552 33.9543 31.6981 35.1521 29.8907 35.8365C27.9999 36.5495 25.9145 36.8061 23.6345 36.8061C22.9671 36.8061 22.5222 36.8061 22.2442 36.7776C21.9661 36.7491 21.5769 36.7491 21.0485 36.7491V45.9035C21.0764 46.1032 20.9373 46.2743 20.7427 46.3028C20.7149 46.3028 20.6871 46.3028 20.6315 46.3028H15.3484C15.126 46.3028 15.0147 46.1887 15.0147 45.9321ZM21.0764 21.7769V31.3591C21.4656 31.3876 21.8271 31.4161 22.1608 31.4161H23.6345C24.7189 31.4161 25.8033 31.245 26.8321 30.9028C27.7219 30.6461 28.5004 30.1043 29.1122 29.3913C29.6961 28.6784 29.9741 27.7087 29.9741 26.4539C30.0019 25.5698 29.7795 24.6858 29.3346 23.9158C28.8619 23.1743 28.1946 22.6039 27.3882 22.2902C26.3594 21.8624 25.2472 21.6913 24.1072 21.7198C23.3842 21.7198 22.7447 21.7198 22.2164 21.7484C21.6603 21.7198 21.271 21.7484 21.0764 21.7769Z" fill="#31A8FF"/>
<path d="M53.3863 29.6197C52.5521 29.1634 51.6624 28.8497 50.717 28.6501C49.6882 28.422 48.6594 28.2794 47.6028 28.2794C47.0466 28.2509 46.4627 28.3364 45.9344 28.479C45.5729 28.5646 45.2671 28.7642 45.0724 29.0494C44.9334 29.2775 44.85 29.5627 44.85 29.8194C44.85 30.076 44.9612 30.3327 45.1281 30.5609C45.3783 30.8746 45.712 31.1312 46.0734 31.3309C46.713 31.6731 47.3803 31.9868 48.0476 32.272C49.5491 32.7853 50.995 33.4983 52.3297 34.3538C53.2473 34.9527 53.998 35.7512 54.5263 36.7209C54.9712 37.6334 55.1937 38.6316 55.1659 39.6583C55.1937 40.9986 54.8044 42.339 54.0814 43.4512C53.3029 44.592 52.2185 45.476 50.9672 45.9894C49.6048 46.5883 47.9364 46.902 45.9344 46.902C44.6554 46.902 43.4041 46.7879 42.1529 46.5312C41.1797 46.3601 40.2065 46.0464 39.3167 45.6186C39.1221 45.5046 38.983 45.3049 39.0108 45.0768V40.1146C39.0108 40.029 39.0386 39.9149 39.1221 39.8579C39.2055 39.8009 39.2889 39.8294 39.3723 39.8864C40.4567 40.5423 41.5968 40.9986 42.8202 41.2838C43.8768 41.569 44.989 41.7116 46.1013 41.7116C47.1579 41.7116 47.9086 41.569 48.4091 41.3123C48.854 41.1127 49.1599 40.6279 49.1599 40.1146C49.1599 39.7153 48.9374 39.3446 48.4925 38.9738C48.0476 38.6031 47.1301 38.1753 45.7676 37.6334C44.3495 37.1201 43.0426 36.4357 41.8192 35.5801C40.9572 34.9527 40.2343 34.1257 39.706 33.156C39.2611 32.2434 39.0386 31.2453 39.0664 30.2472C39.0664 29.0209 39.4001 27.8516 40.0118 26.7964C40.707 25.6557 41.7358 24.7431 42.9314 24.1727C44.2383 23.4883 45.8788 23.1746 47.853 23.1746C48.993 23.1746 50.1609 23.2601 51.3009 23.4312C52.1351 23.5453 52.9414 23.7734 53.6922 24.0872C53.8034 24.1157 53.9146 24.2297 53.9702 24.3438C53.998 24.4579 54.0258 24.572 54.0258 24.686V29.3346C54.0258 29.4486 53.9702 29.5627 53.8868 29.6197C53.6366 29.6768 53.4975 29.6768 53.3863 29.6197Z" fill="#31A8FF"/>
</g>
<defs>
<clipPath id="clip0_26_124">
<rect width="65" height="65" rx="32.5" fill="white"/>
</clipPath>
</defs>
</svg>
