<svg xmlns="http://www.w3.org/2000/svg" xmlns:xlink="http://www.w3.org/1999/xlink" width="424" zoomAndPan="magnify" viewBox="0 0 318 37.5" height="50" preserveAspectRatio="xMidYMid meet" version="1.0"><defs><g/><clipPath id="414ea47ec6"><path d="M 2.09375 0 L 315.757812 0 L 315.757812 36.902344 L 2.09375 36.902344 Z M 2.09375 0 " clip-rule="nonzero"/></clipPath><clipPath id="425d98f407"><path d="M 297.199219 0 C 307.386719 0 315.648438 8.261719 315.648438 18.449219 C 315.648438 28.640625 307.386719 36.902344 297.199219 36.902344 L 20.542969 36.902344 C 10.351562 36.902344 2.09375 28.640625 2.09375 18.449219 C 2.09375 8.261719 10.351562 0 20.542969 0 Z M 297.199219 0 " clip-rule="nonzero"/></clipPath><clipPath id="5189497401"><path d="M 2.132812 0 L 315.707031 0 L 315.707031 36.890625 L 2.132812 36.890625 Z M 2.132812 0 " clip-rule="nonzero"/></clipPath><clipPath id="4014d0d134"><path d="M 297.152344 0 C 307.339844 0 315.597656 8.257812 315.597656 18.445312 C 315.597656 28.632812 307.339844 36.890625 297.152344 36.890625 L 20.578125 36.890625 C 10.394531 36.890625 2.132812 28.632812 2.132812 18.445312 C 2.132812 8.257812 10.394531 0 20.578125 0 Z M 297.152344 0 " clip-rule="nonzero"/></clipPath></defs><g clip-path="url(#414ea47ec6)"><g clip-path="url(#425d98f407)"><path fill="#1d1d1d" d="M 2.09375 0 L 315.613281 0 L 315.613281 36.902344 L 2.09375 36.902344 Z M 2.09375 0 " fill-opacity="1" fill-rule="nonzero"/></g></g><g clip-path="url(#5189497401)"><g clip-path="url(#4014d0d134)"><path stroke-linecap="butt" transform="matrix(0.740132, 0, 0, 0.740132, 2.134475, 0.000000986842)" fill="none" stroke-linejoin="miter" d="M 398.601938 -0.00000133333 C 412.366383 -0.00000133333 423.523605 11.157221 423.523605 24.921666 C 423.523605 38.686111 412.366383 49.843334 398.601938 49.843334 L 24.919422 49.843334 C 11.160255 49.843334 -0.0022457 38.686111 -0.0022457 24.921666 C -0.0022457 11.157221 11.160255 -0.00000133333 24.919422 -0.00000133333 Z M 398.601938 -0.00000133333 " stroke="#fbf0e6" stroke-width="2" stroke-opacity="1" stroke-miterlimit="4"/></g></g><g fill="#ffffff" fill-opacity="1"><g transform="translate(59.469161, 22.06793)"><g><path d="M 0.890625 0 L 0.890625 -9.125 L 4.265625 -9.125 C 4.992188 -9.125 5.597656 -9 6.078125 -8.75 C 6.554688 -8.507812 6.910156 -8.175781 7.140625 -7.75 C 7.378906 -7.320312 7.5 -6.84375 7.5 -6.3125 C 7.5 -5.8125 7.382812 -5.347656 7.15625 -4.921875 C 6.925781 -4.503906 6.570312 -4.164062 6.09375 -3.90625 C 5.613281 -3.65625 5.003906 -3.53125 4.265625 -3.53125 L 2.546875 -3.53125 L 2.546875 0 Z M 2.546875 -4.890625 L 4.15625 -4.890625 C 4.738281 -4.890625 5.15625 -5.015625 5.40625 -5.265625 C 5.664062 -5.523438 5.796875 -5.875 5.796875 -6.3125 C 5.796875 -6.769531 5.664062 -7.125 5.40625 -7.375 C 5.15625 -7.632812 4.738281 -7.765625 4.15625 -7.765625 L 2.546875 -7.765625 Z M 2.546875 -4.890625 "/></g></g></g><g fill="#ffffff" fill-opacity="1"><g transform="translate(68.684356, 22.06793)"><g><path d="M 5.15625 0.15625 C 4.25 0.15625 3.453125 -0.0390625 2.765625 -0.4375 C 2.085938 -0.84375 1.554688 -1.398438 1.171875 -2.109375 C 0.785156 -2.816406 0.59375 -3.632812 0.59375 -4.5625 C 0.59375 -5.488281 0.785156 -6.304688 1.171875 -7.015625 C 1.554688 -7.722656 2.085938 -8.273438 2.765625 -8.671875 C 3.453125 -9.078125 4.25 -9.28125 5.15625 -9.28125 C 6.0625 -9.28125 6.859375 -9.078125 7.546875 -8.671875 C 8.234375 -8.273438 8.765625 -7.722656 9.140625 -7.015625 C 9.523438 -6.304688 9.71875 -5.488281 9.71875 -4.5625 C 9.71875 -3.632812 9.523438 -2.816406 9.140625 -2.109375 C 8.765625 -1.398438 8.234375 -0.84375 7.546875 -0.4375 C 6.859375 -0.0390625 6.0625 0.15625 5.15625 0.15625 Z M 5.15625 -1.34375 C 6.03125 -1.34375 6.722656 -1.628906 7.234375 -2.203125 C 7.753906 -2.773438 8.015625 -3.5625 8.015625 -4.5625 C 8.015625 -5.5625 7.753906 -6.347656 7.234375 -6.921875 C 6.722656 -7.492188 6.03125 -7.78125 5.15625 -7.78125 C 4.289062 -7.78125 3.597656 -7.492188 3.078125 -6.921875 C 2.554688 -6.347656 2.296875 -5.5625 2.296875 -4.5625 C 2.296875 -3.5625 2.554688 -2.773438 3.078125 -2.203125 C 3.597656 -1.628906 4.289062 -1.34375 5.15625 -1.34375 Z M 5.15625 -1.34375 "/></g></g></g><g fill="#ffffff" fill-opacity="1"><g transform="translate(80.297672, 22.06793)"><g><path d="M 0.890625 0 L 0.890625 -9.125 L 4.234375 -9.125 C 4.960938 -9.125 5.5625 -9 6.03125 -8.75 C 6.507812 -8.5 6.863281 -8.160156 7.09375 -7.734375 C 7.332031 -7.316406 7.453125 -6.851562 7.453125 -6.34375 C 7.453125 -5.789062 7.304688 -5.28125 7.015625 -4.8125 C 6.722656 -4.351562 6.269531 -4.019531 5.65625 -3.8125 L 7.546875 0 L 5.625 0 L 3.9375 -3.59375 L 2.546875 -3.59375 L 2.546875 0 Z M 2.546875 -4.828125 L 4.125 -4.828125 C 4.6875 -4.828125 5.097656 -4.957031 5.359375 -5.21875 C 5.617188 -5.488281 5.75 -5.847656 5.75 -6.296875 C 5.75 -6.734375 5.617188 -7.082031 5.359375 -7.34375 C 5.109375 -7.601562 4.695312 -7.734375 4.125 -7.734375 L 2.546875 -7.734375 Z M 2.546875 -4.828125 "/></g></g></g><g fill="#ffffff" fill-opacity="1"><g transform="translate(89.721403, 22.06793)"><g><path d="M 3.015625 0 L 3.015625 -7.78125 L 0.359375 -7.78125 L 0.359375 -9.125 L 7.34375 -9.125 L 7.34375 -7.78125 L 4.671875 -7.78125 L 4.671875 0 Z M 3.015625 0 "/></g></g></g><g fill="#ffffff" fill-opacity="1"><g transform="translate(98.728074, 22.06793)"><g><path d="M 0.890625 0 L 0.890625 -9.125 L 6.78125 -9.125 L 6.78125 -7.78125 L 2.546875 -7.78125 L 2.546875 -5.21875 L 5.96875 -5.21875 L 5.96875 -3.90625 L 2.546875 -3.90625 L 2.546875 0 Z M 0.890625 0 "/></g></g></g><g fill="#ffffff" fill-opacity="1"><g transform="translate(107.213417, 22.06793)"><g><path d="M 5.15625 0.15625 C 4.25 0.15625 3.453125 -0.0390625 2.765625 -0.4375 C 2.085938 -0.84375 1.554688 -1.398438 1.171875 -2.109375 C 0.785156 -2.816406 0.59375 -3.632812 0.59375 -4.5625 C 0.59375 -5.488281 0.785156 -6.304688 1.171875 -7.015625 C 1.554688 -7.722656 2.085938 -8.273438 2.765625 -8.671875 C 3.453125 -9.078125 4.25 -9.28125 5.15625 -9.28125 C 6.0625 -9.28125 6.859375 -9.078125 7.546875 -8.671875 C 8.234375 -8.273438 8.765625 -7.722656 9.140625 -7.015625 C 9.523438 -6.304688 9.71875 -5.488281 9.71875 -4.5625 C 9.71875 -3.632812 9.523438 -2.816406 9.140625 -2.109375 C 8.765625 -1.398438 8.234375 -0.84375 7.546875 -0.4375 C 6.859375 -0.0390625 6.0625 0.15625 5.15625 0.15625 Z M 5.15625 -1.34375 C 6.03125 -1.34375 6.722656 -1.628906 7.234375 -2.203125 C 7.753906 -2.773438 8.015625 -3.5625 8.015625 -4.5625 C 8.015625 -5.5625 7.753906 -6.347656 7.234375 -6.921875 C 6.722656 -7.492188 6.03125 -7.78125 5.15625 -7.78125 C 4.289062 -7.78125 3.597656 -7.492188 3.078125 -6.921875 C 2.554688 -6.347656 2.296875 -5.5625 2.296875 -4.5625 C 2.296875 -3.5625 2.554688 -2.773438 3.078125 -2.203125 C 3.597656 -1.628906 4.289062 -1.34375 5.15625 -1.34375 Z M 5.15625 -1.34375 "/></g></g></g><g fill="#ffffff" fill-opacity="1"><g transform="translate(118.826732, 22.06793)"><g><path d="M 0.890625 0 L 0.890625 -9.125 L 2.546875 -9.125 L 2.546875 -1.296875 L 6.59375 -1.296875 L 6.59375 0 Z M 0.890625 0 "/></g></g></g><g fill="#ffffff" fill-opacity="1"><g transform="translate(127.312072, 22.06793)"><g><path d="M 0.890625 0 L 0.890625 -9.125 L 2.546875 -9.125 L 2.546875 0 Z M 0.890625 0 "/></g></g></g><g fill="#ffffff" fill-opacity="1"><g transform="translate(132.056866, 22.06793)"><g><path d="M 5.15625 0.15625 C 4.25 0.15625 3.453125 -0.0390625 2.765625 -0.4375 C 2.085938 -0.84375 1.554688 -1.398438 1.171875 -2.109375 C 0.785156 -2.816406 0.59375 -3.632812 0.59375 -4.5625 C 0.59375 -5.488281 0.785156 -6.304688 1.171875 -7.015625 C 1.554688 -7.722656 2.085938 -8.273438 2.765625 -8.671875 C 3.453125 -9.078125 4.25 -9.28125 5.15625 -9.28125 C 6.0625 -9.28125 6.859375 -9.078125 7.546875 -8.671875 C 8.234375 -8.273438 8.765625 -7.722656 9.140625 -7.015625 C 9.523438 -6.304688 9.71875 -5.488281 9.71875 -4.5625 C 9.71875 -3.632812 9.523438 -2.816406 9.140625 -2.109375 C 8.765625 -1.398438 8.234375 -0.84375 7.546875 -0.4375 C 6.859375 -0.0390625 6.0625 0.15625 5.15625 0.15625 Z M 5.15625 -1.34375 C 6.03125 -1.34375 6.722656 -1.628906 7.234375 -2.203125 C 7.753906 -2.773438 8.015625 -3.5625 8.015625 -4.5625 C 8.015625 -5.5625 7.753906 -6.347656 7.234375 -6.921875 C 6.722656 -7.492188 6.03125 -7.78125 5.15625 -7.78125 C 4.289062 -7.78125 3.597656 -7.492188 3.078125 -6.921875 C 2.554688 -6.347656 2.296875 -5.5625 2.296875 -4.5625 C 2.296875 -3.5625 2.554688 -2.773438 3.078125 -2.203125 C 3.597656 -1.628906 4.289062 -1.34375 5.15625 -1.34375 Z M 5.15625 -1.34375 "/></g></g></g><g fill="#ffffff" fill-opacity="1"><g transform="translate(143.670181, 22.06793)"><g/></g></g><g fill="#ffffff" fill-opacity="1"><g transform="translate(148.076113, 22.06793)"><g><path d="M 0.890625 1.296875 L 0.890625 -9.375 L 2.546875 -9.375 L 2.546875 1.296875 Z M 0.890625 1.296875 "/></g></g></g><g fill="#ffffff" fill-opacity="1"><g transform="translate(152.820907, 22.06793)"><g/></g></g><g fill="#ffffff" fill-opacity="1"><g transform="translate(157.226844, 22.06793)"><g><path d="M 0.671875 0 L 0.671875 -1.21875 C 1.222656 -1.675781 1.757812 -2.128906 2.28125 -2.578125 C 2.8125 -3.023438 3.28125 -3.472656 3.6875 -3.921875 C 4.101562 -4.367188 4.4375 -4.800781 4.6875 -5.21875 C 4.9375 -5.632812 5.0625 -6.046875 5.0625 -6.453125 C 5.0625 -6.828125 4.957031 -7.15625 4.75 -7.4375 C 4.539062 -7.726562 4.203125 -7.875 3.734375 -7.875 C 3.253906 -7.875 2.894531 -7.71875 2.65625 -7.40625 C 2.414062 -7.09375 2.296875 -6.710938 2.296875 -6.265625 L 0.671875 -6.265625 C 0.691406 -6.929688 0.835938 -7.488281 1.109375 -7.9375 C 1.390625 -8.382812 1.757812 -8.71875 2.21875 -8.9375 C 2.6875 -9.164062 3.207031 -9.28125 3.78125 -9.28125 C 4.707031 -9.28125 5.425781 -9.023438 5.9375 -8.515625 C 6.457031 -8.003906 6.71875 -7.347656 6.71875 -6.546875 C 6.71875 -6.035156 6.601562 -5.539062 6.375 -5.0625 C 6.144531 -4.59375 5.84375 -4.132812 5.46875 -3.6875 C 5.09375 -3.238281 4.6875 -2.820312 4.25 -2.4375 C 3.820312 -2.050781 3.40625 -1.695312 3 -1.375 L 6.953125 -1.375 L 6.953125 0 Z M 0.671875 0 "/></g></g></g><g fill="#ffffff" fill-opacity="1"><g transform="translate(165.972855, 22.06793)"><g><path d="M 4.625 0.15625 C 3.78125 0.15625 3.054688 -0.0390625 2.453125 -0.4375 C 1.859375 -0.832031 1.398438 -1.382812 1.078125 -2.09375 C 0.753906 -2.800781 0.59375 -3.625 0.59375 -4.5625 C 0.59375 -5.488281 0.753906 -6.304688 1.078125 -7.015625 C 1.398438 -7.734375 1.859375 -8.289062 2.453125 -8.6875 C 3.054688 -9.082031 3.78125 -9.28125 4.625 -9.28125 C 5.46875 -9.28125 6.1875 -9.082031 6.78125 -8.6875 C 7.382812 -8.289062 7.847656 -7.734375 8.171875 -7.015625 C 8.503906 -6.304688 8.671875 -5.488281 8.671875 -4.5625 C 8.671875 -3.625 8.503906 -2.800781 8.171875 -2.09375 C 7.847656 -1.382812 7.382812 -0.832031 6.78125 -0.4375 C 6.1875 -0.0390625 5.46875 0.15625 4.625 0.15625 Z M 4.625 -1.34375 C 5.3125 -1.34375 5.867188 -1.628906 6.296875 -2.203125 C 6.734375 -2.773438 6.953125 -3.5625 6.953125 -4.5625 C 6.953125 -5.5625 6.734375 -6.347656 6.296875 -6.921875 C 5.867188 -7.492188 5.3125 -7.78125 4.625 -7.78125 C 3.925781 -7.78125 3.363281 -7.492188 2.9375 -6.921875 C 2.507812 -6.347656 2.296875 -5.5625 2.296875 -4.5625 C 2.296875 -3.5625 2.507812 -2.773438 2.9375 -2.203125 C 3.363281 -1.628906 3.925781 -1.34375 4.625 -1.34375 Z M 4.625 -1.34375 "/></g></g></g><g fill="#ffffff" fill-opacity="1"><g transform="translate(176.530481, 22.06793)"><g><path d="M 0.671875 0 L 0.671875 -1.21875 C 1.222656 -1.675781 1.757812 -2.128906 2.28125 -2.578125 C 2.8125 -3.023438 3.28125 -3.472656 3.6875 -3.921875 C 4.101562 -4.367188 4.4375 -4.800781 4.6875 -5.21875 C 4.9375 -5.632812 5.0625 -6.046875 5.0625 -6.453125 C 5.0625 -6.828125 4.957031 -7.15625 4.75 -7.4375 C 4.539062 -7.726562 4.203125 -7.875 3.734375 -7.875 C 3.253906 -7.875 2.894531 -7.71875 2.65625 -7.40625 C 2.414062 -7.09375 2.296875 -6.710938 2.296875 -6.265625 L 0.671875 -6.265625 C 0.691406 -6.929688 0.835938 -7.488281 1.109375 -7.9375 C 1.390625 -8.382812 1.757812 -8.71875 2.21875 -8.9375 C 2.6875 -9.164062 3.207031 -9.28125 3.78125 -9.28125 C 4.707031 -9.28125 5.425781 -9.023438 5.9375 -8.515625 C 6.457031 -8.003906 6.71875 -7.347656 6.71875 -6.546875 C 6.71875 -6.035156 6.601562 -5.539062 6.375 -5.0625 C 6.144531 -4.59375 5.84375 -4.132812 5.46875 -3.6875 C 5.09375 -3.238281 4.6875 -2.820312 4.25 -2.4375 C 3.820312 -2.050781 3.40625 -1.695312 3 -1.375 L 6.953125 -1.375 L 6.953125 0 Z M 0.671875 0 "/></g></g></g><g fill="#ffffff" fill-opacity="1"><g transform="translate(185.276493, 22.06793)"><g><path d="M 5.0625 0 L 5.0625 -1.6875 L 0.5625 -1.6875 L 0.5625 -3.015625 L 4.828125 -9.125 L 6.71875 -9.125 L 6.71875 -3.140625 L 7.921875 -3.140625 L 7.921875 -1.6875 L 6.71875 -1.6875 L 6.71875 0 Z M 2.34375 -3.140625 L 5.15625 -3.140625 L 5.15625 -7.28125 Z M 2.34375 -3.140625 "/></g></g></g><g fill="#ffffff" fill-opacity="1"><g transform="translate(194.934828, 22.06793)"><g/></g></g><g fill="#ffffff" fill-opacity="1"><g transform="translate(199.340765, 22.06793)"><g><path d="M 0.890625 0 L 0.890625 -9.125 L 6.84375 -9.125 L 6.84375 -7.78125 L 2.546875 -7.78125 L 2.546875 -5.28125 L 6.453125 -5.28125 L 6.453125 -3.96875 L 2.546875 -3.96875 L 2.546875 -1.34375 L 6.84375 -1.34375 L 6.84375 0 Z M 0.890625 0 "/></g></g></g><g fill="#ffffff" fill-opacity="1"><g transform="translate(208.178005, 22.06793)"><g><path d="M 0.890625 0 L 0.890625 -9.125 L 4 -9.125 C 5.070312 -9.125 5.953125 -8.929688 6.640625 -8.546875 C 7.328125 -8.171875 7.835938 -7.640625 8.171875 -6.953125 C 8.503906 -6.273438 8.671875 -5.476562 8.671875 -4.5625 C 8.671875 -3.632812 8.503906 -2.832031 8.171875 -2.15625 C 7.835938 -1.476562 7.328125 -0.945312 6.640625 -0.5625 C 5.953125 -0.1875 5.070312 0 4 0 Z M 2.546875 -1.4375 L 3.921875 -1.4375 C 4.679688 -1.4375 5.28125 -1.554688 5.71875 -1.796875 C 6.164062 -2.046875 6.484375 -2.40625 6.671875 -2.875 C 6.867188 -3.34375 6.96875 -3.90625 6.96875 -4.5625 C 6.96875 -5.207031 6.867188 -5.765625 6.671875 -6.234375 C 6.484375 -6.710938 6.164062 -7.078125 5.71875 -7.328125 C 5.28125 -7.578125 4.679688 -7.703125 3.921875 -7.703125 L 2.546875 -7.703125 Z M 2.546875 -1.4375 "/></g></g></g><g fill="#ffffff" fill-opacity="1"><g transform="translate(218.748664, 22.06793)"><g><path d="M 0.890625 0 L 0.890625 -9.125 L 2.546875 -9.125 L 2.546875 0 Z M 0.890625 0 "/></g></g></g><g fill="#ffffff" fill-opacity="1"><g transform="translate(223.493463, 22.06793)"><g><path d="M 3.015625 0 L 3.015625 -7.78125 L 0.359375 -7.78125 L 0.359375 -9.125 L 7.34375 -9.125 L 7.34375 -7.78125 L 4.671875 -7.78125 L 4.671875 0 Z M 3.015625 0 "/></g></g></g><g fill="#ffffff" fill-opacity="1"><g transform="translate(232.50014, 22.06793)"><g><path d="M 0.890625 0 L 0.890625 -9.125 L 2.546875 -9.125 L 2.546875 0 Z M 0.890625 0 "/></g></g></g><g fill="#ffffff" fill-opacity="1"><g transform="translate(237.24494, 22.06793)"><g><path d="M 5.15625 0.15625 C 4.25 0.15625 3.453125 -0.0390625 2.765625 -0.4375 C 2.085938 -0.84375 1.554688 -1.398438 1.171875 -2.109375 C 0.785156 -2.816406 0.59375 -3.632812 0.59375 -4.5625 C 0.59375 -5.488281 0.785156 -6.304688 1.171875 -7.015625 C 1.554688 -7.722656 2.085938 -8.273438 2.765625 -8.671875 C 3.453125 -9.078125 4.25 -9.28125 5.15625 -9.28125 C 6.0625 -9.28125 6.859375 -9.078125 7.546875 -8.671875 C 8.234375 -8.273438 8.765625 -7.722656 9.140625 -7.015625 C 9.523438 -6.304688 9.71875 -5.488281 9.71875 -4.5625 C 9.71875 -3.632812 9.523438 -2.816406 9.140625 -2.109375 C 8.765625 -1.398438 8.234375 -0.84375 7.546875 -0.4375 C 6.859375 -0.0390625 6.0625 0.15625 5.15625 0.15625 Z M 5.15625 -1.34375 C 6.03125 -1.34375 6.722656 -1.628906 7.234375 -2.203125 C 7.753906 -2.773438 8.015625 -3.5625 8.015625 -4.5625 C 8.015625 -5.5625 7.753906 -6.347656 7.234375 -6.921875 C 6.722656 -7.492188 6.03125 -7.78125 5.15625 -7.78125 C 4.289062 -7.78125 3.597656 -7.492188 3.078125 -6.921875 C 2.554688 -6.347656 2.296875 -5.5625 2.296875 -4.5625 C 2.296875 -3.5625 2.554688 -2.773438 3.078125 -2.203125 C 3.597656 -1.628906 4.289062 -1.34375 5.15625 -1.34375 Z M 5.15625 -1.34375 "/></g></g></g><g fill="#ffffff" fill-opacity="1"><g transform="translate(248.85826, 22.06793)"><g><path d="M 0.890625 0 L 0.890625 -9.125 L 2.546875 -9.125 L 6.84375 -2.703125 L 6.84375 -9.125 L 8.515625 -9.125 L 8.515625 0 L 6.84375 0 L 2.546875 -6.40625 L 2.546875 0 Z M 0.890625 0 "/></g></g></g></svg>