<svg width="346" height="225" viewBox="0 0 346 225" fill="none" xmlns="http://www.w3.org/2000/svg">
<path d="M38.4618 28.5327C39.4722 28.5327 40.1597 28.8973 40.5243 29.616C40.8837 30.3244 41.066 31.1942 41.066 32.2202C41.066 33.2358 40.8837 34.1056 40.5243 34.8244C40.1597 35.5327 39.4722 35.8869 38.4618 35.8869H30.9618C30.6545 42.4181 30.7326 48.439 31.191 53.9494C31.6493 59.465 32.3837 64.0067 33.3993 67.5744C34.4253 71.1473 35.5972 73.491 36.9201 74.616C37.7378 75.2306 38.092 76.0223 37.9826 76.991C37.8837 77.965 36.967 78.4494 35.2326 78.4494H4.31597C3.30034 78.4494 2.79514 77.991 2.79514 77.0744C2.79514 76.1577 3.1493 75.34 3.85764 74.616C5.59201 72.991 6.78472 70.8035 7.44097 68.0535C8.10764 65.2931 8.48784 62.4285 8.5868 59.4702C8.69618 56.5119 8.75347 53.9598 8.75347 51.8035C8.75347 49.7619 8.69618 47.241 8.5868 44.241C8.48784 41.2306 7.88368 38.4442 6.7743 35.8869H3.3993C2.36805 35.8869 1.67534 35.5327 1.31597 34.8244C0.96701 34.1056 0.795135 33.2358 0.795135 32.2202C0.795135 31.1942 0.96701 30.3244 1.31597 29.616C1.67534 28.8973 2.36805 28.5327 3.3993 28.5327H4.31597C7.99305 28.5327 11.0556 27.6942 13.5035 26.0119C15.9462 24.3348 18.0087 22.3452 19.691 20.0535C21.3837 17.7514 22.967 15.6056 24.441 13.616C25.9253 11.6317 27.5868 10.3348 29.4201 9.7202C30.9462 9.11082 32.066 9.24103 32.7743 10.116C33.4931 10.9806 33.7535 11.9181 33.5451 12.9285C33.1389 15.5848 32.7326 18.215 32.316 20.8244C31.9097 23.4233 31.6128 25.991 31.4201 28.5327H38.4618Z" fill="white"/>
<path d="M119.579 75.2409C120.397 75.8555 120.73 76.543 120.579 77.3034C120.423 78.069 119.939 78.4492 119.121 78.4492H88.6627C87.0221 78.4492 86.1523 77.9909 86.0585 77.0742C85.9596 76.1575 86.2669 75.3398 86.9752 74.6159C89.0169 72.8815 90.4648 70.1784 91.3294 66.5117C92.2044 62.8346 92.5846 58.8242 92.4752 54.4909C92.3762 50.1575 91.8919 46.0065 91.0169 42.0326C90.1523 38.0482 88.9335 34.7565 87.3502 32.1576C85.7773 29.5482 83.9179 28.2409 81.7669 28.2409C80.4439 28.2409 78.8606 29.0638 77.0169 30.6992C75.1835 32.3242 73.5481 34.6159 72.121 37.5742C72.121 43.6992 72.3762 49.418 72.8919 54.72C73.4023 60.0273 74.121 64.444 75.0377 67.97C75.9544 71.4857 77.0221 73.6992 78.246 74.6159C79.0637 75.2305 79.4179 76.0221 79.3085 76.9909C79.2096 77.9648 78.2929 78.4492 76.5585 78.4492H46.246C45.5377 78.4492 45.0794 78.069 44.871 77.3034C44.6783 76.543 44.9335 75.8555 45.6419 75.2409C48.2929 73.1992 50.0012 71.2357 50.7669 69.345C51.5273 67.4596 51.9127 65.0846 51.9127 62.22V27.7826C51.9127 24.9232 51.5273 22.5273 50.7669 20.595C50.0012 18.6523 48.2929 16.7096 45.6419 14.7617C44.9335 14.1523 44.6783 13.4909 44.871 12.7825C45.0794 12.0638 45.5377 11.6992 46.246 11.6992C49.9231 11.6992 53.1419 11.194 55.8919 10.1784C58.6523 9.15234 61.0794 7.92317 63.1627 6.49088C65.2564 5.0638 67.121 3.79297 68.746 2.67838C70.3814 1.55338 71.9179 0.83984 73.3502 0.532548C74.9856 0.115882 75.7044 0.397131 75.496 1.36588C75.2877 2.33984 75.0846 3.33463 74.8919 4.34505C74.1679 8.42838 73.6002 12.5898 73.1835 16.8242C72.7773 21.0638 72.4804 25.2773 72.2877 29.4701C74.0221 27.319 76.0377 25.5065 78.3294 24.0326C80.621 22.5482 83.246 21.8034 86.2044 21.8034C91.8137 21.8034 96.6314 23.1576 100.663 25.8659C104.704 28.5742 107.819 32.2305 110.017 36.8242C112.21 41.4076 113.309 46.5065 113.309 52.1159V62.22C113.309 65.0846 113.71 67.4596 114.517 69.345C115.335 71.2357 117.022 73.1992 119.579 75.2409Z" fill="white"/>
<path d="M186.481 75.241C187.283 75.8556 187.585 76.5431 187.377 77.3035C187.179 78.0691 186.674 78.4493 185.856 78.4493H170.252C167.486 78.4493 165.262 77.8399 163.585 76.616C161.903 75.3972 160.679 74.1733 159.918 72.9493C159.153 71.7149 158.772 71.0951 158.772 71.0951C157.132 73.3451 154.986 75.1368 152.335 76.4701C149.679 77.7931 146.819 78.4493 143.752 78.4493C140.387 78.4493 137.278 77.6368 134.418 76.0118C131.554 74.3764 129.283 72.1785 127.606 69.4285C125.924 66.6681 125.085 63.6524 125.085 60.3868C125.085 57.0118 125.924 53.9806 127.606 51.2826C129.283 48.5743 131.554 46.4076 134.418 44.7826C137.278 43.1472 140.387 42.3243 143.752 42.3243C146.819 42.3243 149.679 42.991 152.335 44.3243C154.986 45.6472 157.132 47.4285 158.772 49.6785V45.0743C158.772 42.116 158.408 39.1889 157.689 36.2826C156.981 33.366 155.96 30.9441 154.627 29.0118C153.304 27.0691 151.72 26.0951 149.877 26.0951C148.762 26.0951 148.179 26.8608 148.127 28.3868C148.069 29.9181 148.502 31.6993 149.418 33.741C150.028 35.2826 149.772 36.5899 148.647 37.6576C147.533 38.7305 145.96 39.5483 143.918 40.116C141.877 40.6733 139.757 40.9024 137.564 40.8035C135.366 40.6941 133.502 40.2097 131.96 39.3451C130.429 38.4701 129.668 37.1681 129.668 35.4285C129.668 32.1681 131.528 29.0847 135.252 26.1785C138.986 23.2618 144.377 21.8035 151.418 21.8035C156.929 21.8035 161.856 22.9805 166.189 25.3243C170.522 27.6733 173.939 30.9441 176.439 35.1368C178.939 39.3191 180.189 44.1681 180.189 49.6785V62.2201C180.189 65.0847 180.569 67.4597 181.335 69.3451C182.111 71.2358 183.825 73.1993 186.481 75.241ZM150.502 70.1785C152.637 70.1785 154.444 69.2149 155.918 67.2826C157.403 65.3399 158.147 63.0431 158.147 60.3868C158.147 57.7358 157.403 55.4441 155.918 53.5118C154.444 51.5691 152.637 50.5951 150.502 50.5951C148.46 50.5951 146.694 51.5691 145.21 53.5118C143.736 55.4441 143.002 57.7358 143.002 60.3868C143.002 63.0431 143.736 65.3399 145.21 67.2826C146.694 69.2149 148.46 70.1785 150.502 70.1785Z" fill="white"/>
<path d="M266.065 75.241C266.882 75.8556 267.19 76.5431 266.981 77.3035C266.783 78.0691 266.278 78.4493 265.46 78.4493H234.981C233.356 78.4493 232.513 77.991 232.46 77.0743C232.419 76.1576 232.752 75.3399 233.46 74.616C235.403 72.8816 236.804 70.2097 237.669 66.5951C238.544 62.9701 238.95 59.0118 238.898 54.7201C238.841 50.4285 238.356 46.3243 237.44 42.4076C236.523 38.4805 235.294 35.2358 233.752 32.6785C232.221 30.1264 230.388 28.8451 228.252 28.8451C226.721 28.8451 225.216 29.8451 223.731 31.8451C222.257 33.8347 220.856 36.3035 219.523 39.2618C218.716 48.9597 218.794 56.8399 219.752 62.9076C220.721 68.9806 222.335 72.8816 224.585 74.616C225.403 75.2306 225.757 76.0222 225.648 76.991C225.549 77.9649 224.679 78.4493 223.044 78.4493H193.19C192.481 78.4493 192.023 78.0691 191.815 77.3035C191.622 76.5431 191.877 75.8556 192.585 75.241C195.237 73.1993 196.945 71.2358 197.71 69.3451C198.471 67.4597 198.856 65.0847 198.856 62.2201V49.366C198.856 46.5066 198.471 44.1108 197.71 42.1785C196.945 40.2358 195.237 38.241 192.585 36.1993C191.877 35.5899 191.622 34.9285 191.815 34.2201C192.023 33.5014 192.481 33.1368 193.19 33.1368C196.867 33.1368 200.054 32.6316 202.752 31.616C205.46 30.5899 207.835 29.3868 209.877 28.0118C211.919 26.6368 213.731 25.366 215.315 24.1993C216.898 23.0222 218.403 22.2774 219.835 21.9701C221.471 21.6524 222.158 21.9597 221.898 22.8868C221.648 23.8035 221.419 24.7722 221.21 25.7826L220.752 29.0118C222.278 26.9701 224.033 25.2618 226.023 23.8868C228.023 22.5014 230.242 21.8035 232.69 21.8035C238.2 21.8035 242.971 23.1576 247.002 25.866C251.044 28.5743 254.179 32.2305 256.419 36.8243C258.669 41.4076 259.794 46.5066 259.794 52.116V62.2201C259.794 65.0847 260.174 67.4597 260.94 69.3451C261.7 71.2358 263.408 73.1993 266.065 75.241Z" fill="white"/>
<path d="M344.125 74.6159C345.151 75.2305 345.739 76.0221 345.895 76.9909C346.047 77.9648 345.302 78.4492 343.666 78.4492H311.52C310.698 78.4492 310.062 78.069 309.604 77.3034C309.145 76.543 309.218 75.8555 309.833 75.2409C311.875 73.1992 312.922 71.2357 312.979 69.345C313.031 67.4596 312.698 65.0846 311.979 62.22C311.463 60.1784 310.854 57.8867 310.145 55.345C309.437 52.793 308.567 50.3867 307.541 48.1367C306.526 45.8867 305.323 44.1315 303.937 42.8659C302.562 41.5898 300.854 41.1992 298.812 41.6992C298.922 47.2148 299.255 52.319 299.812 57.0117C300.364 61.7096 301.073 65.6107 301.937 68.72C302.812 71.8346 303.812 73.7982 304.937 74.6159C305.755 75.2305 306.109 76.0221 306 76.9909C305.901 77.9648 304.984 78.4492 303.25 78.4492H272.937C272.229 78.4492 271.77 78.069 271.562 77.3034C271.369 76.543 271.625 75.8555 272.333 75.2409C274.984 73.1992 276.692 71.2357 277.458 69.345C278.218 67.4596 278.604 65.0846 278.604 62.22V27.7826C278.604 24.9232 278.218 22.5273 277.458 20.595C276.692 18.6523 274.984 16.7096 272.333 14.7617C271.625 14.1523 271.369 13.4909 271.562 12.7825C271.77 12.0638 272.229 11.6992 272.937 11.6992C276.614 11.6992 279.833 11.194 282.583 10.1784C285.343 9.15234 287.77 7.92317 289.854 6.49088C291.948 5.0638 293.812 3.79297 295.437 2.67838C297.073 1.55338 298.609 0.83984 300.041 0.532548C301.677 0.115882 302.395 0.397131 302.187 1.36588C301.979 2.33984 301.776 3.33463 301.583 4.34505C300.552 9.66797 299.833 15.1315 299.416 20.7409C299.01 26.3555 298.812 31.8607 298.812 37.2617C300.354 36.8607 302.088 35.8971 304.02 34.3659C305.963 32.8242 308.052 31.1367 310.291 29.3034C312.541 27.4701 314.885 25.8398 317.333 24.4076C319.791 22.9805 322.27 22.1107 324.77 21.8034C327.27 21.5013 329.797 22.168 332.354 23.8034C335.005 25.4284 336.406 27.2617 336.562 29.3034C336.713 31.3451 336.047 33.1367 334.562 34.6784C333.088 36.2096 331.093 37.1523 328.583 37.5117C326.083 37.8607 323.458 37.168 320.708 35.4284C318.968 34.3034 317.312 33.8763 315.729 34.1367C314.145 34.3867 312.588 34.9232 311.062 35.7409C313.823 36.4492 316.218 37.9023 318.25 40.0951C320.291 42.293 322.208 44.9232 324 47.9909C325.791 51.0482 327.604 54.2357 329.437 57.5534C331.27 60.8763 333.359 64.043 335.708 67.0534C338.052 70.0534 340.859 72.5742 344.125 74.6159Z" fill="white"/>
<path d="M118.508 125.647C119.425 125.647 119.831 126.032 119.737 126.793C119.639 127.558 119.076 128.246 118.05 128.855C115.394 130.397 113.508 132.241 112.383 134.376C111.269 136.517 110.248 139.017 109.321 141.876L100.154 171.73L93.5708 192.855C91.1125 200.303 88.3 206.032 85.1333 210.064C81.9771 214.105 78.7635 216.918 75.4875 218.501C72.2219 220.084 69.1125 220.876 66.1541 220.876C61.9718 220.876 58.451 219.98 55.5916 218.189C52.7479 216.397 50.6073 214.126 49.175 211.376C47.7479 208.626 47.0812 205.762 47.175 202.793C47.2739 199.834 48.1906 197.183 49.925 194.834C52.0812 192.084 54.6021 190.225 57.5083 189.251C60.425 188.282 63.2062 188.053 65.8625 188.564C68.5135 189.079 70.6021 190.308 72.1333 192.251C73.6594 194.183 74.0708 196.683 73.3625 199.751C72.6385 203.012 72.7375 205.303 73.6541 206.626C74.5708 207.959 75.9979 208.168 77.9458 207.251C79.8885 206.334 82.0344 204.215 84.3833 200.897C86.7271 197.579 88.925 193.012 90.9666 187.189L92.6333 182.293H83.0083C79.9354 182.293 77.9146 181.683 76.9458 180.459C75.9875 179.241 75.0969 177.303 74.2791 174.647L68.3 155.814C66.4666 149.689 64.7791 144.871 63.2375 141.355C61.7062 137.829 60.2583 135.178 58.8833 133.397C57.5083 131.605 56.1021 130.303 54.675 129.48C53.6593 128.871 53.076 128.079 52.925 127.105C52.7739 126.137 53.5083 125.647 55.1333 125.647H88.5083C89.326 125.647 89.8885 125.98 90.1958 126.647C90.4979 127.314 90.451 128.053 90.05 128.855C88.5083 132.23 87.6594 135.808 87.5083 139.584C87.3521 143.366 87.6594 147.038 88.425 150.605C89.201 154.178 90.1229 157.439 91.1958 160.397C92.2635 163.355 93.2583 165.762 94.175 167.605C95.0916 169.439 95.5968 170.512 95.6958 170.814L96.0083 171.272L96.3208 169.897C96.3208 169.897 96.5968 168.725 97.1541 166.376C97.7218 164.032 98.3625 161.074 99.0708 157.501C99.7896 153.918 100.404 150.22 100.904 146.397C101.415 142.564 101.571 139.043 101.362 135.834C101.165 132.616 100.451 130.288 99.2166 128.855C98.7166 128.147 98.5916 127.439 98.8416 126.73C99.0916 126.012 99.7271 125.647 100.758 125.647H118.508Z" fill="#FDBFD5"/>
<path d="M154.336 125.647C159.946 125.647 165.045 126.928 169.628 129.48C174.222 132.038 177.899 135.459 180.649 139.751C183.409 144.032 184.795 148.772 184.795 153.98C184.795 159.178 183.409 163.918 180.649 168.209C177.899 172.501 174.222 175.928 169.628 178.48C165.045 181.022 159.946 182.293 154.336 182.293C148.711 182.293 143.576 181.022 138.94 178.48C134.3 175.928 130.597 172.501 127.836 168.209C125.086 163.918 123.711 159.178 123.711 153.98C123.711 148.772 125.086 144.032 127.836 139.751C130.597 135.459 134.3 132.038 138.94 129.48C143.576 126.928 148.711 125.647 154.336 125.647ZM154.336 178.001C155.961 178.001 157.409 176.907 158.69 174.709C159.967 172.517 161.008 169.616 161.815 166.001C162.633 162.376 163.045 158.371 163.045 153.98C163.045 149.48 162.633 145.428 161.815 141.814C161.008 138.189 159.967 135.308 158.69 133.168C157.409 131.017 155.961 129.939 154.336 129.939C152.696 129.939 151.211 131.017 149.878 133.168C148.555 135.308 147.487 138.189 146.67 141.814C145.847 145.428 145.44 149.48 145.44 153.98C145.44 158.371 145.847 162.376 146.67 166.001C147.487 169.616 148.555 172.517 149.878 174.709C151.211 176.907 152.696 178.001 154.336 178.001Z" fill="#FDBFD5"/>
<path d="M258.12 129.626C257.605 132.699 257.167 136.454 256.808 140.897C256.443 145.329 256.313 149.949 256.412 154.751C256.521 159.543 257.11 164.084 258.183 168.376C259.251 172.657 260.959 176.225 263.308 179.084C264.027 179.793 264.334 180.512 264.225 181.23C264.126 181.939 263.667 182.293 262.85 182.293H248.766C245.402 182.293 242.672 181.376 240.579 179.543C238.495 177.699 237.042 175.657 236.225 173.418C234.584 175.866 232.542 177.954 230.1 179.689C227.652 181.428 224.693 182.293 221.225 182.293C216.626 182.293 212.485 181.454 208.808 179.772C205.141 178.079 202.23 175.121 200.079 170.897C197.938 166.663 196.87 160.767 196.87 153.209C196.87 150.35 196.485 147.954 195.725 146.022C194.959 144.079 193.251 142.084 190.6 140.043C189.891 139.433 189.636 138.772 189.829 138.064C190.037 137.345 190.495 136.98 191.204 136.98C194.881 136.98 198.068 136.475 200.766 135.459C203.475 134.433 205.85 133.23 207.891 131.855C209.933 130.48 211.745 129.209 213.329 128.043C214.912 126.866 216.417 126.121 217.85 125.814C219.485 125.496 220.172 125.803 219.912 126.73C219.662 127.647 219.433 128.616 219.225 129.626C218.308 134.225 217.667 139.157 217.308 144.418C216.959 149.668 217.063 154.642 217.62 159.334C218.172 164.032 219.245 167.855 220.829 170.814C222.412 173.772 224.631 175.251 227.495 175.251C229.131 175.251 230.641 174.288 232.016 172.355C233.391 170.413 234.584 168.314 235.6 166.064V153.209C235.6 150.35 235.214 147.954 234.454 146.022C233.688 144.079 231.98 142.084 229.329 140.043C228.62 139.433 228.36 138.772 228.558 138.064C228.766 137.345 229.23 136.98 229.954 136.98C233.62 136.98 236.797 136.475 239.495 135.459C242.204 134.433 244.579 133.23 246.62 131.855C248.662 130.48 250.475 129.209 252.058 128.043C253.641 126.866 255.146 126.121 256.579 125.814C258.214 125.496 258.933 125.803 258.725 126.73C258.516 127.647 258.313 128.616 258.12 129.626Z" fill="#FDBFD5"/>
<path d="M280.6 165.293C282.944 165.293 284.933 166.116 286.558 167.751C288.194 169.376 289.017 171.366 289.017 173.709C289.017 176.058 288.194 178.079 286.558 179.772C284.933 181.454 282.944 182.293 280.6 182.293C278.251 182.293 276.235 181.454 274.558 179.772C272.876 178.079 272.037 176.058 272.037 173.709C272.037 171.366 272.876 169.376 274.558 167.751C276.235 166.116 278.251 165.293 280.6 165.293ZM280.6 104.376C283.152 104.376 285.579 104.912 287.871 105.98C290.173 107.053 291.881 108.813 292.996 111.272C294.121 113.72 294.173 117.136 293.162 121.522L284.433 157.334C284.126 158.459 283.61 159.308 282.892 159.876C282.183 160.433 281.418 160.709 280.6 160.709C279.777 160.709 278.985 160.433 278.225 159.876C277.459 159.308 276.923 158.459 276.621 157.334L267.892 121.522C266.881 117.136 266.933 113.72 268.058 111.272C269.183 108.813 270.918 107.053 273.267 105.98C275.61 104.912 278.058 104.376 280.6 104.376Z" fill="#FDBFD5"/>
<path d="M155.499 224.363V208.697H157.395V222.863H164.687V224.363H155.499Z" fill="white"/>
<path d="M172.135 224.634C171.062 224.634 170.119 224.39 169.302 223.905C168.479 223.421 167.833 222.749 167.364 221.884C166.906 221.009 166.677 219.989 166.677 218.822C166.677 217.655 166.906 216.634 167.364 215.759C167.823 214.884 168.458 214.207 169.281 213.718C170.114 213.233 171.078 212.989 172.177 212.989C173.244 212.989 174.166 213.233 174.948 213.718C175.739 214.207 176.343 214.843 176.76 215.634C177.177 216.426 177.385 217.28 177.385 218.197C177.385 218.353 177.375 218.509 177.364 218.676C177.364 218.843 177.364 219.03 177.364 219.239H168.531C168.573 220.087 168.765 220.796 169.114 221.364C169.458 221.921 169.895 222.343 170.427 222.634C170.968 222.916 171.536 223.051 172.135 223.051C172.895 223.051 173.541 222.874 174.073 222.509C174.599 222.15 174.979 221.666 175.218 221.051H177.073C176.765 222.082 176.187 222.936 175.343 223.614C174.51 224.296 173.437 224.634 172.135 224.634ZM172.135 214.593C171.229 214.593 170.432 214.864 169.739 215.405C169.041 215.947 168.645 216.739 168.552 217.78H175.531C175.489 216.78 175.14 216.004 174.489 215.447C173.849 214.879 173.062 214.593 172.135 214.593Z" fill="white"/>
<path d="M184.255 224.364C183.239 224.364 182.442 224.124 181.859 223.634C181.276 223.134 180.984 222.249 180.984 220.968V214.864H179.046V213.259H180.984L181.234 210.593H182.859V213.259H186.13V214.864H182.859V220.968C182.859 221.666 182.994 222.134 183.276 222.384C183.567 222.634 184.067 222.759 184.776 222.759H185.942V224.364H184.255Z" fill="white"/>
<path d="M187.7 213.697L189.013 208.697H191.117L189.055 213.697H187.7Z" fill="white"/>
<path d="M197.526 224.634C196.203 224.634 195.099 224.301 194.214 223.634C193.339 222.957 192.823 222.046 192.672 220.905H194.589C194.714 221.478 195.026 221.978 195.526 222.405C196.026 222.837 196.698 223.051 197.547 223.051C198.339 223.051 198.922 222.884 199.297 222.551C199.672 222.207 199.859 221.801 199.859 221.343C199.859 220.676 199.615 220.233 199.13 220.009C198.641 219.775 197.964 219.572 197.089 219.405C196.49 219.28 195.891 219.108 195.297 218.884C194.698 218.666 194.198 218.353 193.797 217.947C193.391 217.53 193.193 216.983 193.193 216.301C193.193 215.343 193.552 214.551 194.276 213.926C194.995 213.301 195.974 212.989 197.214 212.989C198.391 212.989 199.359 213.291 200.109 213.884C200.859 214.468 201.297 215.311 201.422 216.405H199.568C199.495 215.837 199.255 215.395 198.839 215.072C198.422 214.754 197.87 214.593 197.193 214.593C196.526 214.593 196.005 214.733 195.63 215.009C195.266 215.291 195.089 215.666 195.089 216.134C195.089 216.582 195.323 216.936 195.797 217.197C196.266 217.447 196.906 217.655 197.714 217.822C198.391 217.978 199.036 218.166 199.651 218.384C200.276 218.593 200.781 218.916 201.172 219.343C201.573 219.759 201.776 220.374 201.776 221.176C201.786 222.176 201.411 223.004 200.651 223.655C199.885 224.311 198.844 224.634 197.526 224.634Z" fill="white"/>
<path d="M215.487 224.634C214.43 224.634 213.477 224.39 212.633 223.905C211.784 223.421 211.117 222.739 210.633 221.864C210.159 220.989 209.925 219.978 209.925 218.822C209.925 217.655 210.159 216.634 210.633 215.759C211.117 214.884 211.784 214.207 212.633 213.718C213.477 213.233 214.43 212.989 215.487 212.989C216.789 212.989 217.893 213.337 218.8 214.03C219.701 214.712 220.279 215.629 220.529 216.78H218.591C218.451 216.103 218.091 215.572 217.508 215.197C216.925 214.811 216.242 214.614 215.466 214.614C214.841 214.614 214.247 214.775 213.695 215.093C213.138 215.4 212.685 215.864 212.341 216.489C212.008 217.114 211.841 217.895 211.841 218.822C211.841 219.739 212.008 220.509 212.341 221.134C212.685 221.759 213.138 222.239 213.695 222.572C214.247 222.895 214.841 223.051 215.466 223.051C216.242 223.051 216.925 222.864 217.508 222.489C218.091 222.103 218.451 221.551 218.591 220.843H220.529C220.305 221.968 219.737 222.884 218.82 223.593C217.904 224.291 216.789 224.634 215.487 224.634Z" fill="white"/>
<path d="M228.192 224.634C227.15 224.634 226.202 224.395 225.358 223.926C224.525 223.442 223.864 222.759 223.379 221.884C222.905 221.009 222.671 219.989 222.671 218.822C222.671 217.645 222.91 216.614 223.4 215.739C223.884 214.864 224.551 214.192 225.4 213.718C226.244 213.233 227.192 212.989 228.233 212.989C229.275 212.989 230.212 213.233 231.046 213.718C231.879 214.192 232.535 214.864 233.025 215.739C233.509 216.614 233.754 217.645 233.754 218.822C233.754 219.989 233.504 221.009 233.004 221.884C232.515 222.759 231.848 223.442 231.004 223.926C230.171 224.395 229.233 224.634 228.192 224.634ZM228.192 223.03C228.827 223.03 229.421 222.874 229.962 222.551C230.515 222.233 230.968 221.759 231.317 221.134C231.66 220.509 231.837 219.739 231.837 218.822C231.837 217.895 231.671 217.114 231.337 216.489C231.004 215.864 230.556 215.4 230.004 215.093C229.447 214.775 228.858 214.614 228.233 214.614C227.593 214.614 226.994 214.775 226.442 215.093C225.884 215.4 225.431 215.864 225.087 216.489C224.754 217.114 224.587 217.895 224.587 218.822C224.587 219.739 224.754 220.509 225.087 221.134C225.431 221.759 225.879 222.233 226.421 222.551C226.973 222.874 227.567 223.03 228.192 223.03Z" fill="white"/>
<path d="M236.367 224.363V208.259H238.242V224.363H236.367Z" fill="white"/>
<path d="M241.332 224.363V208.259H243.207V224.363H241.332Z" fill="white"/>
<path d="M249.984 224.634C249.067 224.634 248.301 224.478 247.692 224.176C247.077 223.858 246.619 223.442 246.317 222.926C246.025 222.4 245.879 221.832 245.879 221.218C245.879 220.082 246.306 219.207 247.171 218.593C248.03 217.983 249.213 217.676 250.713 217.676H253.713V217.53C253.713 216.572 253.452 215.843 252.942 215.343C252.442 214.843 251.76 214.593 250.9 214.593C250.176 214.593 249.546 214.775 249.004 215.134C248.473 215.499 248.15 216.03 248.025 216.739H246.088C246.171 215.936 246.442 215.254 246.9 214.697C247.369 214.145 247.952 213.718 248.65 213.426C249.359 213.134 250.109 212.989 250.9 212.989C252.452 212.989 253.619 213.405 254.4 214.239C255.192 215.072 255.588 216.171 255.588 217.53V224.364H253.9L253.796 222.364C253.473 223.004 253.01 223.546 252.4 223.989C251.801 224.416 250.994 224.634 249.984 224.634ZM250.275 223.051C250.994 223.051 251.614 222.864 252.129 222.489C252.64 222.114 253.03 221.629 253.296 221.03C253.572 220.436 253.713 219.811 253.713 219.155V219.134H250.859C249.76 219.134 248.984 219.322 248.525 219.697C248.067 220.072 247.838 220.546 247.838 221.114C247.838 221.697 248.046 222.171 248.463 222.53C248.89 222.879 249.494 223.051 250.275 223.051Z" fill="white"/>
<path d="M264.331 224.634C263.415 224.634 262.602 224.447 261.894 224.072C261.185 223.697 260.644 223.176 260.269 222.509L260.102 224.363H258.394V208.259H260.269V215.093C260.628 214.567 261.144 214.087 261.81 213.655C262.477 213.212 263.321 212.988 264.352 212.988C265.446 212.988 266.404 213.249 267.227 213.759C268.045 214.259 268.685 214.957 269.144 215.843C269.602 216.718 269.831 217.718 269.831 218.843C269.831 219.957 269.602 220.947 269.144 221.822C268.685 222.697 268.04 223.384 267.206 223.884C266.383 224.384 265.425 224.634 264.331 224.634ZM264.123 222.988C264.873 222.988 265.524 222.817 266.081 222.468C266.649 222.124 267.102 221.634 267.435 221.009C267.769 220.384 267.935 219.655 267.935 218.822C267.935 217.988 267.769 217.259 267.435 216.634C267.102 215.999 266.649 215.504 266.081 215.155C265.524 214.811 264.873 214.634 264.123 214.634C263.373 214.634 262.711 214.811 262.144 215.155C261.586 215.504 261.144 215.999 260.81 216.634C260.477 217.259 260.31 217.988 260.31 218.822C260.31 219.655 260.477 220.384 260.81 221.009C261.144 221.634 261.586 222.124 262.144 222.468C262.711 222.817 263.373 222.988 264.123 222.988Z" fill="white"/>
<path d="M277.5 224.634C276.458 224.634 275.51 224.395 274.666 223.926C273.833 223.442 273.171 222.759 272.687 221.884C272.213 221.009 271.979 219.989 271.979 218.822C271.979 217.645 272.218 216.614 272.708 215.739C273.192 214.864 273.859 214.192 274.708 213.718C275.552 213.233 276.5 212.989 277.541 212.989C278.583 212.989 279.52 213.233 280.354 213.718C281.187 214.192 281.843 214.864 282.333 215.739C282.817 216.614 283.062 217.645 283.062 218.822C283.062 219.989 282.812 221.009 282.312 221.884C281.822 222.759 281.156 223.442 280.312 223.926C279.479 224.395 278.541 224.634 277.5 224.634ZM277.5 223.03C278.135 223.03 278.729 222.874 279.27 222.551C279.822 222.233 280.276 221.759 280.625 221.134C280.968 220.509 281.145 219.739 281.145 218.822C281.145 217.895 280.979 217.114 280.645 216.489C280.312 215.864 279.864 215.4 279.312 215.093C278.755 214.775 278.166 214.614 277.541 214.614C276.901 214.614 276.302 214.775 275.75 215.093C275.192 215.4 274.739 215.864 274.395 216.489C274.062 217.114 273.895 217.895 273.895 218.822C273.895 219.739 274.062 220.509 274.395 221.134C274.739 221.759 275.187 222.233 275.729 222.551C276.281 222.874 276.875 223.03 277.5 223.03Z" fill="white"/>
<path d="M285.675 224.364V213.259H287.384L287.529 215.384C287.873 214.666 288.394 214.087 289.092 213.655C289.8 213.212 290.665 212.989 291.696 212.989V214.968H291.175C290.519 214.968 289.915 215.087 289.363 215.322C288.821 215.546 288.384 215.936 288.05 216.489C287.717 217.046 287.55 217.801 287.55 218.759V224.364H285.675Z" fill="white"/>
<path d="M297.48 224.634C296.563 224.634 295.798 224.478 295.188 224.176C294.574 223.858 294.115 223.442 293.813 222.926C293.522 222.4 293.376 221.832 293.376 221.218C293.376 220.082 293.803 219.207 294.668 218.593C295.527 217.983 296.709 217.676 298.209 217.676H301.209V217.53C301.209 216.572 300.949 215.843 300.438 215.343C299.938 214.843 299.256 214.593 298.397 214.593C297.673 214.593 297.043 214.775 296.501 215.134C295.97 215.499 295.647 216.03 295.522 216.739H293.584C293.668 215.936 293.938 215.254 294.397 214.697C294.865 214.145 295.449 213.718 296.147 213.426C296.855 213.134 297.605 212.989 298.397 212.989C299.949 212.989 301.115 213.405 301.897 214.239C302.688 215.072 303.084 216.171 303.084 217.53V224.364H301.397L301.293 222.364C300.97 223.004 300.506 223.546 299.897 223.989C299.298 224.416 298.49 224.634 297.48 224.634ZM297.772 223.051C298.49 223.051 299.11 222.864 299.626 222.489C300.136 222.114 300.527 221.629 300.793 221.03C301.069 220.436 301.209 219.811 301.209 219.155V219.134H298.355C297.256 219.134 296.48 219.322 296.022 219.697C295.563 220.072 295.334 220.546 295.334 221.114C295.334 221.697 295.543 222.171 295.959 222.53C296.386 222.879 296.99 223.051 297.772 223.051Z" fill="white"/>
<path d="M310.286 224.364C309.271 224.364 308.474 224.124 307.89 223.634C307.307 223.134 307.015 222.249 307.015 220.968V214.864H305.078V213.259H307.015L307.265 210.593H308.89V213.259H312.161V214.864H308.89V220.968C308.89 221.666 309.026 222.134 309.307 222.384C309.599 222.634 310.099 222.759 310.807 222.759H311.974V224.364H310.286Z" fill="white"/>
<path d="M319.544 224.634C318.471 224.634 317.529 224.39 316.711 223.905C315.888 223.421 315.242 222.749 314.774 221.884C314.315 221.009 314.086 219.989 314.086 218.822C314.086 217.655 314.315 216.634 314.774 215.759C315.232 214.884 315.867 214.207 316.69 213.718C317.524 213.233 318.487 212.989 319.586 212.989C320.654 212.989 321.576 213.233 322.357 213.718C323.149 214.207 323.753 214.843 324.169 215.634C324.586 216.426 324.794 217.28 324.794 218.197C324.794 218.353 324.784 218.509 324.774 218.676C324.774 218.843 324.774 219.03 324.774 219.239H315.94C315.982 220.087 316.175 220.796 316.524 221.364C316.867 221.921 317.305 222.343 317.836 222.634C318.378 222.916 318.945 223.051 319.544 223.051C320.305 223.051 320.951 222.874 321.482 222.509C322.008 222.15 322.388 221.666 322.628 221.051H324.482C324.175 222.082 323.596 222.936 322.753 223.614C321.919 224.296 320.846 224.634 319.544 224.634ZM319.544 214.593C318.638 214.593 317.841 214.864 317.149 215.405C316.451 215.947 316.055 216.739 315.961 217.78H322.94C322.899 216.78 322.55 216.004 321.899 215.447C321.258 214.879 320.471 214.593 319.544 214.593Z" fill="white"/>
</svg>
